<svg xmlns="http://www.w3.org/2000/svg" width="600" height="145"><path d="M69.893 71.257H55.095c-6.688 0-12.122-5.434-12.122-12.122V18.756c0-2.256 1.839-4.012 4.014-4.012 2.256 0 4.095 1.755 4.095 4.012v12.123h18.811c6.688 0 12.121 5.433 12.121 12.121v16.135c0 6.688-5.433 12.122-12.121 12.122zM73.906 43c0-2.257-1.756-4.012-4.013-4.012h-18.81v20.146c0 2.257 1.755 4.013 4.013 4.013h14.798c2.256 0 4.013-1.756 4.013-4.013V43zM116.708 71.257H101.91c-6.688 0-12.122-5.434-12.122-12.122.083-6.688 5.434-12.12 12.122-12.12h18.811V43c0-2.257-1.756-4.012-4.013-4.012h-18.81c-2.257 0-4.095-1.839-4.013-4.097 0-2.172 1.755-4.012 4.013-4.012h18.811c6.688 0 12.121 5.433 12.121 12.121v16.135c-.001 6.688-5.434 12.122-12.122 12.122zm4.013-16.135H101.91c-2.257 0-4.013 1.756-4.013 4.013-.084 2.257 1.755 4.013 4.013 4.013h14.798c2.256 0 4.013-1.756 4.013-4.013v-4.013zM163.523 71.257h-14.714c-6.688 0-12.206-5.434-12.206-12.122V34.891c0-2.256 1.839-4.012 4.014-4.012 2.34 0 4.095 1.755 4.095 4.012v24.244c0 2.257 1.923 4.013 4.097 4.013h14.714c2.257 0 4.013-1.756 4.013-4.013V34.891c0-2.256 1.839-4.012 4.096-4.012 2.258 0 4.013 1.755 4.013 4.012v24.244c0 6.688-5.435 12.122-12.122 12.122zM250.26 71.257c-2.258 0-4.096-1.756-4.096-4.012V43c0-2.257-1.755-4.012-4.014-4.012h-15.237c-2.174 0-4.013 1.754-4.013 4.012v24.245c0 2.256-1.756 4.012-4.013 4.012-2.257 0-4.097-1.756-4.097-4.012V43c0-2.257-1.755-4.012-4.013-4.012h-15.154c-2.174 0-4.097 1.754-4.097 4.012v13.339c0 2.256-1.755 4.013-4.095 4.013-2.174 0-4.013-1.756-4.013-4.013V43c0-6.688 5.517-12.121 12.205-12.121h15.154c3.093 0 5.937 1.253 8.11 3.093 2.174-1.923 4.932-3.093 8.025-3.093h15.237c6.688 0 12.124 5.433 12.124 12.121v24.245c.001 2.256-1.755 4.012-4.013 4.012zM296.987 55.122h-26.92v4.013c0 2.257 1.756 4.013 4.013 4.013h18.811c2.258 0 4.014 1.839 4.097 4.098 0 2.172-1.839 4.012-4.097 4.012H274.08c-6.687 0-12.12-5.434-12.12-12.122V43c0-6.688 5.433-12.121 12.12-12.121h14.797C295.565 30.879 301 36.312 301 43v8.11c0 2.174-1.84 4.012-4.013 4.012zM292.89 43c0-2.257-1.755-4.012-4.013-4.012H274.08c-2.256 0-4.013 1.754-4.013 4.012v4.015h22.823V43zM327.668 38.988h-6.773c-2.258 0-4.012 1.754-4.012 4.012v24.245c0 2.172-1.84 4.012-4.096 4.012-2.176 0-4.012-1.839-4.012-4.012V43c0-6.688 5.432-12.121 12.119-12.121h6.773c2.174 0 3.928 1.839 4.012 4.012.001 2.258-1.837 4.097-4.011 4.097z"/><path fill="#E31C19" d="M187.433 121.722c-2.174 0-4.013-1.84-4.013-4.015V85.355c0-2.174 1.839-4.014 4.013-4.014 2.257 0 4.095 1.84 4.095 4.014v32.352c0 2.175-1.838 4.015-4.095 4.015z"/><circle fill="#E31C19" cx="187.431" cy="71.83" r="4.416"/><path d="M272.815 121.722h-22.823c-2.256 0-4.095-1.84-4.095-4.015.083-2.256 1.839-4.096 4.095-4.096h22.823c2.257 0 4.096-1.755 4.014-4.013 0-2.257-1.756-4.012-4.014-4.012h-14.798c-6.688 0-12.121-5.435-12.121-12.122s5.432-12.123 12.121-12.123h18.812c2.256 0 4.012 1.84 4.095 4.014a4.104 4.104 0 0 1-4.095 4.097h-18.812c-2.258 0-4.014 1.755-4.014 4.013 0 2.257 1.756 4.012 4.014 4.012h14.798c6.688 0 12.122 5.436 12.122 12.122.083 6.688-5.434 12.123-12.122 12.123zM327.5 105.587h-26.918v4.012c0 2.258 1.756 4.013 4.012 4.013h18.811c2.26 0 4.014 1.84 4.096 4.096 0 2.175-1.836 4.015-4.096 4.015h-18.811c-6.687 0-12.12-5.435-12.12-12.123V93.465c0-6.688 5.434-12.123 12.12-12.123h14.797c6.689 0 12.123 5.436 12.123 12.123v8.108c0 2.174-1.838 4.014-4.014 4.014zm-4.096-12.122c0-2.258-1.754-4.013-4.014-4.013h-14.797c-2.256 0-4.012 1.755-4.012 4.013v4.012h22.822v-4.012zM358.182 89.452h-6.773c-2.256 0-4.012 1.755-4.012 4.013v24.242c0 2.175-1.84 4.015-4.096 4.015-2.174 0-4.012-1.84-4.012-4.015V93.465c0-6.688 5.434-12.123 12.119-12.123h6.773c2.172 0 3.93 1.84 4.012 4.014 0 2.255-1.839 4.096-4.011 4.096zM403.742 108.68l-10.033 10.031c-1.922 1.923-3.594 3.011-6.27 3.011-2.76 0-4.43-1.088-6.354-3.011l-10.033-10.031s-2.508-2.758-2.508-6.186V85.439c0-2.258 1.924-4.014 4.182-4.014 2.172 0 3.928 1.756 3.928 4.014v17.055l10.785 11.369 10.701-11.369V85.439c0-2.258 1.758-4.014 4.012-4.014 2.176 0 4.098 1.756 4.098 4.014v17.055c0 3.428-2.508 6.186-2.508 6.186zM418.037 121.722c-2.174 0-4.014-1.84-4.014-4.015V85.355c0-2.174 1.84-4.014 4.014-4.014 2.256 0 4.096 1.84 4.096 4.014v32.352c0 2.175-1.84 4.015-4.096 4.015zM458.13 121.722h-16.135c-6.688 0-12.121-5.435-12.121-12.123V93.465c0-6.688 5.434-12.123 12.121-12.123h16.217c2.258 0 3.932 1.84 4.014 4.014 0 2.256-1.756 4.097-4.014 4.097h-16.217c-2.256 0-4.012 1.755-4.012 4.013V109.6c0 2.258 1.756 4.013 4.012 4.013h16.135c2.258 0 4.014 1.84 4.096 4.096 0 2.173-1.838 4.013-4.096 4.013zM503.606 105.587h-26.918v4.012c0 2.258 1.756 4.013 4.014 4.013h18.809c2.258 0 4.014 1.84 4.096 4.096 0 2.175-1.838 4.015-4.096 4.015h-18.809c-6.688 0-12.123-5.435-12.123-12.123V93.465c0-6.688 5.436-12.123 12.123-12.123h14.799c6.684 0 12.119 5.436 12.119 12.123v8.108c0 2.174-1.84 4.014-4.014 4.014zm-4.095-12.122c0-2.258-1.756-4.013-4.01-4.013h-14.799c-2.258 0-4.014 1.755-4.014 4.013v4.012h22.822v-4.012zM542.315 121.722h-22.826c-2.254 0-4.094-1.84-4.094-4.015.084-2.256 1.84-4.096 4.094-4.096h22.826c2.258 0 4.094-1.755 4.014-4.013 0-2.257-1.756-4.012-4.014-4.012h-14.799c-6.688 0-12.121-5.435-12.121-12.122s5.434-12.123 12.121-12.123h18.812c2.254 0 4.01 1.84 4.094 4.014a4.104 4.104 0 0 1-4.094 4.097h-18.812c-2.258 0-4.014 1.755-4.014 4.013 0 2.257 1.756 4.012 4.014 4.012h14.799c6.688 0 12.119 5.436 12.119 12.122.085 6.688-5.431 12.123-12.119 12.123zM414.141 71.83a4.417 4.417 0 1 1 8.83 0 4.417 4.417 0 0 1-8.83 0z"/><circle cx="234.005" cy="101.213" r="4.416"/><path fill="#E31C19" d="M218.929 122.057h-8.613c-6.619 0-11.997-5.377-11.997-11.998V71.385c0-2.234 1.82-3.971 3.972-3.971 2.233 0 4.053 1.737 4.053 3.971v10.709h12.585c2.152 0 3.889 1.82 3.972 3.973.084 2.235-1.82 4.055-3.972 4.055h-12.585v19.938c0 2.236 1.737 3.976 3.972 3.976h8.613c2.152 0 3.889 1.817 3.972 4.053.084 2.149-1.82 3.968-3.972 3.968z"/></svg>