<svg xmlns="http://www.w3.org/2000/svg" width="720" height="720"><path fill="#FEFEFE" d="M715.9 1.9c2.5 0 5.7-.9 4.4 3.7-.3.9 0 1.9 0 2.9 0 235.5 0 471.2.1 706.8 0 5.4-1.2 6.7-6.7 6.7-235.7-.1-471.5-.1-707 0-5.4 0-6.7-1.2-6.7-6.7.2-66.3.1-132.4.1-198.7 1-.4 1.8-.1 2.3.7 1.5 2.9 1.2 6.2 1.2 9.2v52.9c-.3 11.7.3 23.5 0 35.3-.1 30.8 0 61.6 0 92.4 0 8.7 1 9.5 9.7 9.7 20.9.3 41.9-.7 63-.1 27.2-.3 54.5-.4 81.7 0 16.5.4 33.1-.4 49.6 0h18.3c36.5.3 72.9-.6 109.5-.1 52 .4 103.8.3 155.8.1 68.7-.1 137.5.3 206.1 0 3.4 0 6.9 0 10.2-.1 6 .1 7.9-3.1 7.8-8.7-.3-15.5.3-31.1-.6-46.6.9-18 .9-36.1.4-54.1.3-48.4.1-96.8.1-145.2 0-61.2.1-122.2 0-183.3 0-2.5.1-4.8-.6-7.2-.1-.9-.3-1.8-.3-2.8 1-7.9.9-15.8.9-23.8.1-3.1-.4-6.3-.1-9.4.1-15 0-29.9 0-45-.1-60.1.3-120.3-.3-180.4.2-2.4-.2-5.4 1.1-8.2z"/><path fill="#F29602" d="M715.9 1.9c1.5 1.9 1.5 4 1.5 6.3v180.7c0 .7-.1 1.5-.3 2.2-1 .3-1.8-.1-2.2-1-1.9-5-1-10.1-1.2-15.1-.1-12.9 0-25.8 0-38.7 0-4.1-.6-7.6-4.1-10.3-4-3.1-3.4-7.2-1.8-11.3 5-3.4 6.1-8.1 6-13.8-.3-16.1-.1-32.3-.1-48.3 0-4.4-.7-8.2-5.3-10.3-3.5-5.9-1.3-12.3-1.9-18.5-.3-2.9 1-6.5-2.5-8.5-4.5-1.9-9.8.1-14.2-2.2-.6-.4-1-1.2-1.2-2.1.9-3.8-.1-5.7-4.7-5.6-10.7.3-21.4.3-31.9 0-5.1-.1-7.2 3.2-9.8 6.3-5 1.8-10.1 1.5-15.1.3-4.1-5.9-9.8-7.2-16.5-6.6-2.3.3-4.8 0-7-1.3-.7-.6-.9-1.3-.4-2.2h112.7z"/><path fill="#ED9D02" d="M246.1 1.9H432c.4 1 .1 1.8-.7 2.3-4.1 2.1-8.5 1.3-12.7 1.3-12.7 0-25.5.1-38.2 0-20.4-.3-40.9.4-61.2-.4-6.6-.3-2.8 4.5-4.7 6.3-1.3.9-2.8 1.2-4.2 1.2-19.2 0-38.5.7-57.7-.4-4-1.3-3.8-5.9-6.4-8.2-.7-.6-.7-1.3-.1-2.1z"/><path fill="#F7E2AE" d="M1.3 516.7c-.4 0-.9 0-1.2-.1V88.3c1-.4 1.9-.1 2.5.9 2.3 11.3 1.2 22.9 1.3 34.3.1 44.9-.3 89.8-.1 134.8.3 13.3.4 26.7 0 40 0 68.9 0 137.7-.1 206.7-.1 4 1.1 8.4-2.4 11.7z"/><path fill="#F2AB42" d="M603.2 1.9c0 .4 0 1-.1 1.5-5.6 4-11.7 1.8-17.7 2.2-24.7.1-49.3.6-74.1-.1-.9-.1-1.8-.6-2.6-1-.9-.6-1.2-1.5-.7-2.3 31.8-.3 63.5-.3 95.2-.3z"/><path fill="#F1AE0F" d="M1.6 1.9h14.6c.4.6.7 1.2.7 1.9C13.4 10 9.5 15.6 1.8 17.1c-.7-.4-1-1.2-1-1.9.5-4.5-.7-9 .8-13.3z"/><path fill="#FEFDFB" d="M1.6 1.9c.1 4.8.1 9.8.3 14.7 2.3 2.9 1.8 6.5 1.8 9.8 0 18.2-.2 36.6.8 54.7-.6 2.6-.9 5.4-3.1 7.3-.4 0-.9 0-1.3.1 0-27.1 0-54.3.1-81.4 0-1.6-2.3-4.4 1.4-5.2z"/><path fill="#EFA343" d="M99.6 1.9h80.5c.4 1 .1 1.8-.7 2.3-1.5.9-3.2 1.2-5 1.3-23.7 0-47.3.7-71-.3-1.7-.5-3.8-.6-3.8-3.3z"/><path fill="#EFAE06" d="M99.6 1.9c.7 1.2 1.8 1.5 3.1 1.5 4 5.3 2.9 8.4-2.9 9.1-2.6.3-5.1.3-7.8-.6-3.1-1.6-3.2-4.5-3.4-7.5.1-1.3 1.3-1.9 2.2-2.6 3 .1 5.9.1 8.8.1z"/><path fill="#F27F40" d="M508.1 1.9v1.3c-2.3 2.8-5.7 2.5-8.8 2.5-16.7 0-33.2.3-49.9-.1-2.3-.1-4.5 0-6.6-1.3-.9-.6-1-1.3-.6-2.3 22-.1 44-.1 65.9-.1z"/><path fill="#F0A640" d="M246.1 1.9v1.5c-5 3.7-10.5 1.8-16 2.2-9.4.1-18.7.3-28.1-.1-1.8 0-3.5-.3-5.1-1.2-.9-.6-1-1.3-.6-2.2 16.5-.2 33.1-.2 49.8-.2z"/><path fill="#F4CF43" d="M90.9 1.9l-1.5 1.5c-.6.7-1.5 1.5-2.3 1.5-12.6.9-25.4 1.9-38-.6-.8-.6-1.1-1.3-.7-2.4h42.5z"/><path fill="#F3CB30" d="M48.4 1.9v1.3C37.7 7 26.9 7 16.2 3.2V1.7c10.7.2 21.5.2 32.2.2z"/><path fill="#ED9622" d="M196.3 1.9v1.3c-5.4 3.4-10.8 3.4-16.3 0 0-.4 0-.9.1-1.3h16.2z"/><path fill="#F0A936" d="M442.3 1.9v1.3c-.7 1.2-1.9 1.6-3.1 1.9-2.5.3-5 .4-7-1.8V2c3.2-.1 6.5-.1 10.1-.1z"/><path fill="#EB6603" d="M717.1 462.2V608c-.7 8.1-.3 16-.3 24.1 0 5.3-1.6 7.5-6.9 5.1-1.6-1-3.1-2.1-4-3.8-2-6.9-1-14.1-1-21.1.1-13.3-.7-26.8.6-40.2 2.1-2.9-.9-8.5 5-9.5 2.9 3.8 1.3 8.4 2.3 12.6 1.5-1 1-2.3 1-3.4 0-29.8.3-59.5.1-89.3 0-1.2-.1-2.5-.4-3.7-1.3-3.7-.3-7.8-1.5-11.4-2.2-.7-4 6.2-6.4.3-.7-2.6-.7-5.3-.7-8.1V276.4c0-2.9-.1-5.9 1-8.7.4-.9 1-1.6 1.9-2.1 1 .3 1.8.9 2.2 1.8 1.5 3.8 1 7.8 1 11.6-.1 44.1.3 88.4-.1 132.6-.1 12.3 0 24.8.1 37.3 0 3.5-.7 7.6 3.8 9.2 1.7.7 1.8 2.5 2.3 4.1z"/><path fill="#EB9900" d="M708.7 412.6V266.1c3.2-1.3 5.3.6 7.2 2.8.1.4.3.7.1 1.2 1.2 2.3.6 4.8.6 7.2 0 39.7.1 79.3-.1 119.1 0 7.3-.6 14.8-3.4 21.9-6.1 1.9-2.3-4.1-4.4-5.7z"/><path fill="#F3C50C" d="M708.4 718.7c-44.4 0-88.7.1-133.1.1-79.9 0-159.9 0-239.8-.1 1.2-4 4.5-2.9 7.2-3.1 3.1-.3 6.3 0 9.5-.3 39.5 0 79.1-.3 118.6.1 8.8-.1 17.6-.4 26.4 0 12.9.6 25.2-1 37.3-5.4 7.9-.6 15.7-.3 23.6-.3 1.8.1 3.7.4 4.5 1.9 3.4 6.5 8.3 4 13 2.2 2.9-1.2 5.6-3.2 8.5 0 2.5 2.2 5.6 1.5 8.3 1.5 14.2.1 28.5 0 42.8 0 21.8-.3 43.6-.3 65.4 0 2.6.5 6.4-.9 7.8 3.4z"/><path fill="#F49F07" d="M158.2 718.6c-27.4.1-54.6.1-82 .3-1.8-3.8-.9-7 2.3-9.7 7.6-1.8 15.5-.7 23.3-.9 13.3-.1 26.8 0 40.1 0 8.5.1 17 0 25.5.1 1.9 0 4.5.1 5.1 2.1.7 2.5-2.2 2.6-3.7 3.7-2.6 2.1-5.7 2.6-8.8 2.9-.6.4-1.2.9-1.8 1.5z"/><path fill="#F08601" d="M708.4 718.7c-2-1.9-4.7-.6-7-1.2-1.3-1-3.1-1.2-4.5-2.1-1.8-1-3.2-2.5-2.9-4.5.3-1.9 2.3-2.2 4-2.5 1.9-.3 3.7-1 5-2.5 2.5-3.2 1.9-7 2.1-10.6.1-17 0-34.2.1-51.2 0-3.5-.7-7.5 2.5-10.3.9.4 1.8.9 2.6 1.5.1 1.8.7 3.4.6 5.1-.6 7.9-.7 15.7 5.6 21.9 2.2 13.1.1 26.1 1.2 39.2.3 3.1-.1 6.3.1 9.5.3 6.7-2.6 9.5-9.4 7.7z"/><path fill="#EDB733" d="M1.3 516.7c.1-13.3.3-26.8.3-40.2.1-59.4.3-118.9.3-178.3 1-.1 1.8.3 2.2 1.3 1.3 2.8 1.2 5.7 1.2 8.5 0 19.7.3 39.2-.1 58.8.3 9.8.3 19.7 0 29.6.3 22.3.3 44.6 0 66.9.4 6.6 0 13.1.1 19.7.1 13.9.1 27.9 0 41.7.1 14.2.1 28.6 0 42.8 0 4.4 1.2 7.5 5.6 8.9 2.9 4.8 1.3 10.3 1.6 15.4.3 4-.3 8.1.7 12 .3 1.8.1 3.5-.9 5-7.3-.9-9.5-3.1-9.8-9.7-.4-6.5.5-13-.5-19.6-.3-20.7-.6-41.8-.7-62.8z"/><path fill="#F0B802" d="M351.3 717.5c-5.3.7-10.8-1.3-16 1.3H225.5c-.3-1 .1-1.8 1-2.2 10.1-2.3 20.4-1.2 30.5-1 12.6.1 24.7-.7 36.3-6 3.4-1.6 7.2-1.2 10.7-2.3 16.8-1.2 33.8-.4 50.7-.4 1.8 0 3.4.4 4.8 1.2.9.4 1.3 1.2 1.2 2.2-4.8 4.1-10.7 2.2-16.1 2.3-7.6.3-15.2-.4-23.3-1.5 7.2 1.3 14.1.4 20.5 1.9 3.4.6 7.9-.3 9.5 4.5z"/><path fill="#F4A800" d="M77.7 710.3c.4 2.9-.9 5.7-1.5 8.5-22.8.1-45.8.1-68.7.3-4.4 0-6-1.5-6-6 .1-32.7.3-65.4.3-98.1 1-.3 1.8 0 2.2.9 1.6 3.5 1.2 7.2 1.2 10.9v77.6c0 10.6.4 10.6 11.3 11.1 10.2.4 19.6-1.9 29.1-5.1 10.4-3.6 21.4-3.7 32.1-.1z"/><path fill="#F08605" d="M717.1 236.5v8.8c-.6.4-1.2.6-1.8.4-3.1-1.5-7.6 5.3-9.8-1.6-.7-12.3-.7-24.6 0-37 3.1-2.5 1.5-4.8 0-7.3-1-15-.3-29.8-.4-44.6 0-2.2.3-4.4 1.8-6.2 5.3.4 4 4.7 4 7.5.4 10.7.3 21.4.1 32.3-.1 4.8 1.2 8.5 5.4 11.1 1.1 12.1-.5 24.4.7 36.6z"/><path fill="#F4A811" d="M711.7 418.5c.1-.1.6-.3.4-.4-.7-8.9 4-17 4-26.1-.1-40.6 0-81.1 0-121.7 1.8 1.5 1.2 3.5 1.2 5.4v184.4c0 .7-.1 1.5-.3 2.2-.4-.9-.7-1.8-1.2-2.6-1.8-1-2.8-2.6-2.8-4.7-.4-11-1.2-22.1-2.6-33.1-.2-1.4.2-2.5 1.3-3.4z"/><path fill="#F6A806" d="M716.2 662.2c-1.5-3.4-7.2-.1-7.3-4.3-.1-7.5-1.9-15.3 1.2-22.6 4.4 2.6 5.9 1.2 6-3.7.3-7.9-1.3-15.8.9-23.8.1 18.2 1.2 36.4-.8 54.4z"/><path fill="#F2C05A" d="M3 615.2H1.8v-35.3c2.5 3.8 1.5 8.2 1 12-.7 7.8 1.2 13.8 8.6 17.3 3.2 3.2 2.5 6.9 1.5 10.7-6.2 4.5-6.7-3-9.9-4.7z"/><path fill="#F1BE00" d="M158.2 718.6v-.9c4.2-2.3 8.9-1.6 13.3-2.1 6.6-.6 12.9-1.6 19.3-3.2 5.4-1.5 11-2.8 15.7 1.9.4.7.9 1.3 1.3 2.1.4.7.4 1.5.1 2.3-16.6-.1-33.1-.1-49.7-.1z"/><path fill="#E65B04" d="M716.1 245.4h1c.3 7.9 1.6 15.8-1.2 23.6-2.3-.9-4.8-1.9-7.2-2.8l-.1-.3c-3.1-4.8-2.3-9.4 1.6-13.2 2.2-2.3 3.5-5.2 5.9-7.3z"/><path fill="#EF9A01" d="M717.1 236.5c-2.3-9.5-.4-19.1-1-28.6-.1-2.6-.1-5.3-.1-7.9-2.1-2.9-2.3-5.9.1-8.8h1.2c-.2 15.1-.2 30.2-.2 45.3z"/><path fill="#F49F07" d="M208 718.6v-.9c5.9-3.2 11.7-3.2 17.7-.1v1.2c-6-.1-11.8-.1-17.7-.2z"/><path d="M11.5 620.6V609c0-1.6-.1-3.1-.1-4.7-2.1-41.2-1.6-82.4-1.8-123.6 0-7.8 5.4-9.8 10.8-11.7 9.7-3.4 19.5-6.2 29.6-7.9 12.4-3.4 25.2-5.1 37.6-8.1 24.2-5.1 48.6-9.1 73.1-11.9 7.5-.4 14.8-2.1 22.3-2.8 7-.1 14.1-2.1 21.1-1.6 3.2-.3 6.4-1.5 9.7-1.3 4.1-.1 8.2.1 12.2-1 7.2-1 14.5-.1 21.5-1.9 7.9-.9 15.8 1 23.6-1.2 9.7-1.3 19.5-.1 29.1-.4 3.4 0 6.7 0 10.1-1 6.4-1 12.9-.6 19.3-.6 15.8-.3 31.8-.1 47.6-.1 13.3-.9 26.5 2.3 39.7 1.6 7.3 0 14.6-.4 21.8.4 16.7 1.6 33.5 2.2 50.2 3.7 13.3 1.2 26.6 2.3 40 3.7 11.3 1.6 22.4 3.5 33.8 4.5 3.5 1.3 7.3.7 11 1.6 16.4 2.8 32.8 5.1 48.9 8.7 3.4 1 6.9 1.3 10.2 2.3 4.8 1 9.5 2.1 14.3 3.1 3.8 1.2 7.9 1.6 11.7 2.8 10.2 3.5 21.4 4.3 31.3 8.8-6.3-3.5-12.6-6.9-19.2-10-7-2.5-13.9-5.3-21.1-7.2-2.6-1-5.3-2.2-7.9-3.2-5.1-2.3-10.8-3.2-16.3-5-4.1-.4-7.6-2.9-11.7-3.5-14.1-2.9-27.5-7.9-41.9-9.5-5.1-.3-9.7-2.8-14.8-3.1-3.4-.6-6.7-1.3-10.1-1.9-2.9-.9-6-.9-9.1-.9-1.6 0-3.2-.1-4.8-.4-3.1-.6-6.2-.9-9.2-1.5-7.5-1.5-9.1-4.5-6.7-11.9.7-2.1 1.3-4.1 1.9-6.2.4-16.7 2.2-33.3 5.7-49.7 2.3-8.2 2.1-15.8-2.9-23.3s-6.2-16.7-9.7-24.9c-.9-5.7-3.1-11-4.8-16.6-.7-5 0-9.7 2.5-14.1 3.7-6.6 1-13.8 1.2-20.8 0-2.3-.9-4.8-1-7.2-.1-9.7-2.9-19.1-4.4-28.5-1.9-8.2-1-16.9-5-24.8-4.4-14.1-10-27.4-21.2-37.8-1.8-1.6-2.9-3.8-4.1-6-4.2-7.5-8.9-14.1-17.6-17.5-7.9-3.1-11.3-11.9-18.2-16.4-4.1-4-8.8-7-14.2-8.9-4-3.8-9.5-5-13.8-8.4-8.3-4.8-14.9-12.6-24-16.3-1.8-1-3.5-2.2-5.4-2.9-8.1-3.1-15.7-8.2-25-4.8-2.5.9-5.4 1.3-7 3.7-7.8 11.4-20.6 15.1-32.1 20.7-9.8 4.8-20.5 7.5-31.2 10.4-19.5 5.3-35.6 15.1-48 31.2-6.9 8.9-16.5 15.1-25.3 21.9-4.2 2.5-5.7 6.3-5.6 11 .1 5.1 0 10.1 0 15.3-.7 10.7 1 21.3 3.1 31.7 1.6 8.2 7.3 4.8 12 4.5 7.5-1.3 13.6.4 17.4 7.6 1 1.6 2.1 3.5 3.8 4.4 9.4 5.1 13.2 13.9 16.3 23.5 2.6 9.5 5.9 18.9 8.6 28.5 4.7 16.3 6.6 32.9 7.6 49.6.1 2.6 0 5.4 1 7.9 1.8 6.3 4.2 12.5 3.4 19.2-.6 3.8-1.3 7.8-1.9 11.6-1.2 4.1-1.3 8.4-3.1 12.3-1.3 3.1-3.1 6-3.7 9.5-1.3 7.5-5.7 12-13 13.9-6.4 1.3-13.2-.3-19.5 1.6-6.3.3-12.4 1.2-18.6 1.8-3.2 0-6.6-.1-9.7 1-16.8 2.2-33.7 4.1-50.4 7.2-25 4-49.9 9.4-74.2 16.4-12.9 2.5-24.9 7.5-37.2 12-11.1 4-21.4 9.4-32.2 14.1-5.4 2.3-7.5 1.2-8.1-4.7-.1-1.8 0-3.4 0-5.1-.1-54.4 0-109-.1-163.4-.3-12.6-.3-25.2 0-38-.4-19.9.4-39.9 0-59.8-.3-11.9-.3-23.6-.1-35.5-.3-21.7.1-43.6.1-65.3-.4-2.8.3-5.7 0-8.5.6-22.1-.4-44.4-.1-66.6 0-4.5-.3-9.5 5-12 14.3-1.5 28.7-.6 43-.6 11.9 0 23.9-1 35.7 1.2 5.9 1.2 11.6-1.5 17.3-1.5 31.6-.1 63.4-.4 95 0h4.4c73.9 3.2 147.7-1.2 221.7 0 26.4-.1 52.9-.6 79.2-.1 36.3-.7 72.8-.9 108.9.6 20.1.7 39.8-2.1 59.7-.4 3.4.3 6.9-.4 10 1.8 5.1.1 10.2.4 15.4.6 2.6 1.8 2.6 4.3 2.8 7 1.5 28 2 56 1 83.9-.4 11.9.1 23.6.6 35.5.1 3.4.4 6.9-2 9.8v54.1c.3.3.4.7.3 1-.1.3-.1.6-.3.6v42.4c3.7 6.5-.9 12.8 0 19.2 0 49.6-.1 99.1-.1 148.7 0 18.3.1 36.7.1 55 2.3 2.6 1.8 6 1.8 9.1.1 18.5 0 37 .1 55.3.3 12.3 0 24.6-1.8 36.8v63.1c-1 22.1-.4 44.4-.3 66.6 0 3.5 1 7.8-4.4 8.5-23.4 3.7-46.9 1.6-70.3 2.1-24.2.3-48.2.3-72.3-.7-11.7-.4-23.4.4-35 .4-51.4.3-102.8.1-154.2 0-3.7 0-7.3.7-10.5-1.8h-57.1c-7-.1-13.8 2.6-20.8 1.9-25.2-.3-50.5-.1-75.7 0-21.1 1.5-42-2.5-63.1-1.5-28.8 0-57.5-.1-86.4 0-11.1 0-22.3 2.2-33.5 1.8-12.2-.6-14.2-2.1-14.2-14.1-.1-22.3 0-44.4 0-66.7 0-3.4-.2-6.9 2-9.8z"/><path fill="#C24000" d="M689.7 11.8c-59.6 0-119.2.1-178.8.1-2.8-2.3-4-5.1-1.3-8.4h76c1.2 4.1 4.1 5.3 8.2 5.1 7.9-.1 16 0 23.9 0 3.2 0 6.3.1 8.9 2.1h16.1c1.2-1 2.3-1.8 3.8-1.9 13-.7 26.1-.7 39.2 0 1.5 0 2.8.7 3.8 1.9.2.3.2.8.2 1.1z"/><path fill="#EE8B00" d="M707.4 148.6c-.1-41.9-.1-83.9-.3-125.7 0-3.7 0-7.3-2.2-10.6 4 .9 3.5 4 3.5 6.9v22.3c2.2 2.3 2.3 5.3 2.3 8.2.1 18.6 0 37.4 0 56 0 3.2-.6 6.3-2.3 8.9 0 4.5-1.3 9.5 5.1 11.6 3.2 1 2.1 4.5 2.1 7v57.6c0 2.9-.1 5.9-.1 8.8-5.7.9-7.5-1.5-7.3-7.2.4-12.3.1-24.8.1-37.1.3-2 1-4.6-.9-6.7z"/><path fill="#EF9A01" d="M708.7 114.9V41.6c5.7-.9 7.6 1.3 7.5 7.2-.4 18.5-.3 37.1 0 55.6 0 5.8-1 9.7-7.5 10.5z"/><path fill="#E86F00" d="M689.7 10.6h-46.9c-.4-4.5.7-7.3 6.3-7.3 14.5.1 29 0 43.5 0 1.1 3.6-2 5.1-2.9 7.3z"/><path fill="#E88700" d="M626.6 10.7c-12.2 0-24.3-.4-36.5.1-7.2.3-7.8-1.9-4.5-7.3 5.9 0 11.7-.1 17.6-.1 4.4 0 8.8.4 13 0 5.9-.7 9.8.9 10.4 7.3z"/><path fill="#E96700" d="M432 3.3c2.5 0 4.8.1 7.3.1 2.3 7.3-3.5 6.6-7.6 7.8-.9.1-1.8.1-2.5.1h-64.3c-4-2.2-.7-3.1.9-3.5 4.5-1.5 9.2-2.3 13.6-4.4 17.5 0 35 0 52.6-.1z"/><path fill="#EC7300" d="M379.3 3.4c-3.7 6.2-10.8 4.5-16.1 7.3-5.9 1.6-12 .3-17.9.7-4.1-1-8.3-1-12.4 0-6-.4-12 1-18-.9-1.2-2.9-4.4-3.7-7-7.2 24.3.1 47.8.1 71.4.1z"/><path fill="#E66000" d="M344.2 10.7H432c.3.3.4.6.3.7-.1.3-.1.4-.3.4H294.4c-26.4 0-52.7.1-79.1.1-1.9 0-4-.1-5.9-.1 1-3.8 4.4-3.1 7-3.2 4-.3 8.1-.3 12.2 0 7.3.4 14.8-1.8 21.8 1.8 21.4 0 42.9.1 64.3.1 6.3 0 12.7.1 19 .1 3.6-1 6.9-1 10.5.1z"/><path fill="#EF9000" d="M250.5 10.5c-7.3 0-14.5 0-21.8.1-2.2-2.8-.3-4.8 1.3-7 5.4 0 10.7 0 16.1-.1 5.7-.5 4.1 3.9 4.4 7z"/><path fill="#E7B12F" d="M11.4 97.4c0 21.9 0 43.9-.1 65.7-4.5 0-6.3 2.3-6.3 6.7.1 10.4-.1 20.7.1 31.1 0 9.8.1 19.7 0 29.5-.7 8.9 1.2 18-1.2 26.8-.4.9-1.2 1.3-2.2 1.2-.1-54.2-.1-108.5-.3-162.7 0-2.5-.1-4.8-.3-7.3.4-1.9-.1-4.3 1.5-5.9 1.5-.4 2 .6 2.3 1.8 0 8.8-.7 17.7.6 27.7 3.1-2.9 2.2-5.7 2.6-8.1.8-2.4-.3-5.6 3.3-6.5z"/><path fill="#F2C555" d="M2 258.5c.3.1.6.1 1 .1 2.8 1.3 5.6-1.9 8.5 0 0 12.8 0 25.4.1 38.1-.4.4-1 .9-1.6 1.2-2.3.7-4.7.6-7 .1-.3 0-.6.1-.9.1C2 285 2 271.7 2 258.5z"/><path fill="#E85100" d="M432 11.9v-1.2c5.7-1.6 12.6-.6 16.1-7.2 20.1-.1 40-.3 60-.3.4.1 1 .3 1.5.4-.6 2.9.9 5.6 1.3 8.4-26.3-.1-52.7-.1-78.9-.1z"/><path fill="#EBBD00" d="M14.7 12.1c-3.8 1.9-3.2 5.6-3.2 8.9v69.1c-1 2.1-2.6 2.8-4.7 1.5-2.3-1.6-2.6-3.8-1.3-6.3 4.1-10.7 4.8-21.6-.7-32-1-1.9-2.5-3.8-2.3-6 .1-10.1-1-20.4.6-30.5 4.7-4.1 9.7-8.1 13.2-13.2h32.2c13.6 0 27.4 0 41 .1 1.3 2.2 1.6 4.7 1.5 7.2-2.2 1.5-4.7.7-7 .7H22.2c-2.6-.1-5.1-.6-7.5.5z"/><path fill="#F4D213" d="M3 16.6v26.3c0 2.2-.7 5.1 1 6.3 10.2 7 5 17.5 6.1 26.4.3 2.9.3 5.9 0 8.8-.3 3.5-2.5 1.9-4.2 1.2-.9-.1-1.3-.6-1.5-1.5-.6-.6-1.2-1-1.6-1.6-2.3-22-.9-44-1-65.9H3z"/><path fill="#ED8B01" d="M14.7 12.1c2.2-2.2 5.1-1.2 7.6-1.2 22.8-.1 45.7-.1 68.4-.1 2.3 0 4.8-.1 7.2.1 6.1.4 7.2-2.2 4.7-7.3 25.8 0 51.5-.1 77.5-.1h16.3c1.5 0 2.9.1 4.4.1 2 1.3 4.4 2.1 6.1 3.8 1.5 1.6 2.3 3.2-.3 4.5h-134c-19.2.2-38.5.2-57.9.2z"/><path fill="#E66000" d="M448.1 3.6c.9 5.9-1.6 7.9-7.3 7.2-2.9-.3-5.9 0-8.8 0 2.9-1.9 7.5-2.2 7.3-7.2 1-.1 1.9-.1 2.9-.3 2 0 3.9.1 5.9.3z"/><path fill="#E87101" d="M206.5 11.9c2-5.6-5.6-4.4-5.9-8.4h29.1c-.4 2.3-.9 4.7-1.3 7-6.3 1-12.9-1.2-19 1.3-.8.1-1.8.1-2.9.1z"/><path fill="#E9490E" d="M714.6 477.1c2.2 1.9 1.3 4.5 1.3 6.9v93.8c-.1 1.9-.9 3.4-3.1 3.2-2.2-.1-2.8-1.6-2.8-3.5v-15.4c-1.8-2.1-1.5-4.5-1.3-7 .4-19.9 2.2-39.9 2.6-59.8 2.7-5.8-1-12.7 3.3-18.2z"/><path fill="#FAA001" d="M713.1 494.9c.4 22.4-2.6 44.7-3.1 67.3-2.9 2.3 0 6.5-2.5 8.8v-36.7c1.2-14.8.1-29.6.4-44.4v-11.7c0-3.1.3-6.7 4-6.6 3.5.1 1.8 4 1.8 5.9-.1 5.7.7 11.5-.6 17.4z"/><path fill="#F59700" d="M711.7 418.5c2.1 12.2 3.7 24.5 3.1 37 0 1.3.7 2.8 1.2 4.1-5.3.6-7.3-1.6-7.2-7 .3-13.2.1-26.5.1-39.7 2.2 1 .3 4.3 2.8 5.6z"/><path fill="#F58D03" d="M713.1 494.9v-22.7c-5 1.8-4.5 5.1-4.5 8.2v46.2c0 2.6.9 5.4-1.2 7.8-.1-21.6-1.2-43.1 0-64.5 1.3-1 1-2.5 1.3-4 .4-1.8 1.5-3.1 3.4-2.9 2.3.1 2.2 2.1 2.3 3.7v10.7c-.5 5.6 1.5 11.8-1.3 17.5z"/><path fill="#E04200" d="M707.6 265.9v-19.2c1.8-1 3.7-2.2 5.4-3.2 2.3-1.5 2.8.1 3.2 1.9-.3 2.3.7 5.3-1.9 6.5-6.6 2.9-5.6 8.7-5.6 14.1h-1.1z"/><path fill="#F2C902" d="M351.3 717.5c-10.2-4.3-21.5-3.1-31.9-7.2h40.9c.9-.6 1.8-.7 2.8-.7 36 .1 72-.3 108.1.1 2.8 2.5 2.3 5.1.4 7.8H351.3z"/><path fill="#F1AA07" d="M471.4 710.3H360.1v-1.2c58.7-.1 117.3-.4 176-.4 32.1 0 64.3.3 96.3.4 3.8 2.2 3.7 5.1 1.5 8.4-16.4 0-32.8.1-49.2 0-1.5 0-5.9 1.3-2.2-2.9.7-1.6.7-2.8-1.5-2.9-3.1 0-6.1.6-9.4.4-2.5 0-5 .1-7.5-.3-1.8-.3-3.4-1.8-5.1-.3h-24.9c-17.4 1.5-35 .7-52.6.9-3.2.1-7 .6-10.1-2.1z"/><path fill="#EF7F04" d="M634.1 717.5c-.1-2.9.4-5.9-1.5-8.4h70.1c-2.1 2.2-5 .4-7.5 1.8.1 4 5.3 3.5 6.1 6.7-22.4-.1-44.8-.1-67.2-.1z"/><path fill="#F1B403" d="M471.4 710.3h56.2c2.3 0 5-.7 6.9 1.5-11.9 5.6-24.6 6.5-37.5 5.9-8.5-.3-17-.1-25.5-.1 0-2.4-.1-4.9-.1-7.3z"/><path fill="#F0B802" d="M572.4 710.3h13.2c.7 2.8-1.3 3.4-2.9 4.4-1.6-2.1-3.5-1.6-5 0-4 4.4-9.1 2.3-13.6 2.9-5.1.7-.1-6.5-4.8-5.9 1-1.8 2.8-1.5 4.4-1.5 3 2.8 5.8 2.3 8.7.1z"/><path fill="#EE9101" d="M11.5 620.6c.1 26.3.4 52.7.1 78.9 0 7 2.3 9.4 9.2 9.2 40.8-.1 81.7 0 122.7.1.4.3.6.6.4.7-.1.3-.3.4-.4.4H77.6c-14.8-.3-29.4-.4-43.6 6-8.3 3.8-18.3 1.3-27.5 1-4.4-.1-3.5-4.5-3.5-7.6v-94.6c4.6-.4 4.7 5.6 8.5 5.9z"/><path fill="#EF8B00" d="M143.6 710.2V709h63c.4.3.9.7 1.5 1 1.6.7 3.7.7 3.1 3.4-.7.9-1.8 1.5-2.8 2.2-.6.6-1.2 1.2-1.9 1.8-2.9-6.3-8.9-5.4-13-3.8-11.6 4.4-23.4 3.7-35.1 4-1-.9-.4-2.3.3-2.2 4.8.4 8.2-3.5 12.4-5.1-9.2-.1-18.3-.1-27.5-.1z"/><path fill="#EA8B00" d="M10.3 296.9c.4-.1.7-.1 1.2-.1.1 26 .3 51.8.3 77.7v85.1c0 3.4.3 6.7.6 11 13-7 25.3-13.6 38.9-17 1.2 2.9-.7 6 0 8.9-11.1 3.2-22.3 6.7-33.4 9.7-5 1.3-6.3 3.7-6.3 8.7.1 41.2-.1 82.4-.3 123.8-2.3-9.1-.4-18.5-1-27.6-2.5-2.8-2.3-6.3-2.3-9.7 0-15.8-.3-31.5.1-47.4 0-9.7 0-19.5.1-29.3 0-4-1.3-6.5-5.3-7.6v-18.9c4-4.4 5-10 5-15.5.3-14.1 0-28.2.1-42.2 0-4.4-1.8-7.3-5.1-9.7v-29.3c4.4-2.1 5.1-5.9 5.1-10.3-.1-16.6-.1-33 0-49.6.1-4-.4-7.8 2.3-10.7z"/><path fill="#EEA804" d="M10.3 296.9c0 21.6-.3 43.1.1 64.7.1 6.3-1.9 7.8-7.3 5.6 0-23-.1-46.1-.1-69.1 2.1-2.4 4.8-1.1 7.3-1.2z"/><path fill="#ED9802" d="M3 396.5c5.6-.9 7.6 1.3 7.5 7.2-.4 15.3.3 30.7-.4 45.9-.3 5.1 2.1 12.9-7 14.4-.1-22.6-.1-45.1-.1-67.5z"/><path fill="#EE8C00" d="M10.3 518.1v58.7c-5.6 2.3-7.6.9-7.5-5.4.5-15.4.2-30.6.2-45.9 2.4-2.6 2.2-7.6 7.3-7.4z"/><path fill="#F0A503" d="M10.3 518.1c-3.4 1.6-3.7 6.2-7.3 7.3v-42.5c5.9-3.8 7.5-1.5 7.3 4.7-.1 10.1 0 20.3 0 30.5z"/><path fill="#EA8203" d="M206.5 717.4v-2.8c5.1-1.5 10.2-2.3 15.7-2.1 2.8.1 5.3-.3 7.6-1.9 3.4-.7 6.7-.3 10.1-.4 6.9-.9 13.9-.7 20.9-.7 3.1.7 6.1 1.2 9.2 0 4.2-.4 8.5.6 12.6-.6h20.5c-24.9 11.4-51.4 8.2-77.5 8.5-5.9 0-11.7 0-17.7.1-.5.2-.9 0-1.4-.1z"/><path fill="#EE8B00" d="M707.4 204.3v-1.6c1.2-.4 2.5-1.9 3.7-.3.7 1 .4 2.3-.4 3.2-2 1.7-2.1-.8-3.3-1.3z"/><path fill="#EFC500" d="M214 163.3c11.3-8.9 21.7-18.6 31.2-29.6 10.5-12.5 25.2-19.1 40.7-23.3 17.4-4.7 34.4-10.6 50.4-19.2 4.5-2.5 8.6-5.3 11.6-9.7 3.8-5.6 16-9.2 22.1-6.7 4.7 1.9 9.2 4.3 13.9 6.3.9 3.7-2 5.3-4.1 7-19 17-39.2 32.9-58.4 49.9-18.3 16.1-36.9 31.8-55.2 48-4.7 4.3-10.4 7.3-14.5 12.2-1.2 1.5-2.9 1.8-4.7 1.2-.6-.3-1.2-.7-1.5-1.5-5.1-8.4-12.3-15-19-21.9-3.6-4.9-10.2-6.7-12.5-12.7z"/><path fill="#EFA900" d="M246.1 198.5c7.9-3.4 13.6-9.7 19.9-15 24.9-21.1 49.3-42.8 74.1-64.1 12.7-10.9 25.6-21.4 38.5-32.3 2.1-1.8 3.5-4 5.3-6 1.9 0 3.4.7 4.5 2.3 2.8 2.8 1.9 5.3.4 8.5-4.8 10.1-11.7 18.9-17.1 28.7-7.8 14.5-18 27.6-25.3 42.2-9.5 18.9-22.3 35.9-31.8 54.9-1.5 2.8-2.9 5.6-3.1 8.9-3.2 7-6.4 13.9-13.6 17.9-7.8-5.6-14.1-12.8-21.7-18.5-3.7-4.7-9.1-7.8-12.9-12.3-4.2-4.7-8.9-8.7-14.3-11.9-1-.3-1.9-.7-2.6-1.3-.8-.7-.8-1.4-.3-2z"/><path fill="#EE7400" d="M440.9 117.7c9.4 11.9 24.7 17 33.4 29.6.9 1.3 1.8 2.8 2.6 4.3-1.5 7.3.6 15.3-3.7 22.1-3.2 5.1-7.3 9.7-10.1 15.1-2 3.8-3.2 7.5-3.1 11.7.4 8.7-.7 17-3.2 25.2-.9 2.8-1.6 5.9-.6 8.7 2.5 6.2 3.1 12.8 5 18.9.3.7.4 1.5.4 2.2-1.5 3.8-3.8 6.9-7.2 8.9-9.5 5.7-15.7 2.3-15.8-9.1-.1-9.7-.1-19.5.3-29.3.3-6.2-2.2-12.3-3.2-18.5-.3-1.9-1.5-3.8-1-5.7 3.2-13.9-1.2-27.6-2.3-41.2.4-6.7-1.6-13.3-1.3-20.1.4-7.6 5.3-13.9 6.1-21.4.4-1.1 2-2 3.7-1.4z"/><path fill="#ED7800" d="M461.1 254.2c-1.8-.1-4-.7-3.4-2.8 1.6-5.9-1.5-10.4-3.2-15.3-2.6-7 2-13.2 2.8-19.9.4-3.7 1.5-7.2 1-10.9-1.6-11.9 4.1-20.8 11.3-29.2 3.8-4.4 5-10 5-15.8 0-2.9-2.2-7 2.5-8.8 10.8 13.2 21.7 26.4 25.3 43.9 1.5 5.6-2.2 9.4-5 13.1-10.7 14.2-21.1 28.6-31.6 42.8-1.1 1.4-2 3.5-4.7 2.9z"/><path fill="#F0B000" d="M529.7 440.6c-16-1.5-31.8-3.1-47.7-4.3-11.1-.9-22.3-1.2-33.5-1.8-3.1-.1-6.3.7-9.2-1-4.4-8.5-5.9-18.2-9.7-26.8-.3-6.3 2.2-11 7.3-14.5 7.6.7 8.2 2.1 5.9 12.6-1.8 4.3 0 6.3 4.4 6.7 7 .6 14.1 1.2 20.9 1.6 7.8.6 15.4 1.3 23 2.6 8.1 1.5 10.1.1 13.5-7.3 1.3-2.9 2.8-5.7 5.1-7.9 6-2.3 7.6-1.5 12 6 .6 3.1-1 5.4-2.5 8.1-2.2 3.8-1.2 6.5 3.5 7 4.1.6 8.3 0 11.9 2.3 7.6 4.7 7.8 5.3.9 11-2.3 2.1-1.4 6.7-5.8 5.7z"/><path fill="#EFA000" d="M310.5 226.3c-2.2-3.4.3-5.9 1.8-8.4 8.9-15 19.2-29.3 26.5-45 4.4-9.5 12.9-16.7 14.9-27.6.6-3.1 4.7-5.4 6.6-8.5 5.1-8.1 9.2-16.9 14.1-25.1 4.1-7.3 9.2-14.2 13.3-21.6 1.5-2.5 1.3-4.4.7-6.7 9.7 3.4 16.4 11 24.5 16.9-1.8 2.8-4.7 4.5-6.7 7.2-22.8 29.8-45.5 59.7-69.1 88.9-7 8.7-13.9 17.5-20.9 26.3-1.5 1.7-2.6 4.4-5.7 3.6z"/><path fill="#F6CA00" d="M405.7 106.1c1.8-2.6 3.5-5.4 7-5.9 4.4 3.1 10.5 3.4 13.6 8.5 2.3 1.6 3.5 4.1 3.4 6.9-.4 12.5 2 24.6 1.5 37.1 1.3 22.6 2.9 45 3.7 67.6-2.5 7.6-8.2 11.7-17 12.3-3.7-3.2-2.3-7.6-2.3-11.7.1-16.3.4-32.7-1.6-48.8-.9-6.6-4.7-12.3-5.7-18.9-.4-2.6-1.6-5.4-.1-7.9 4.2-7.8 1.8-15.1-1.2-22.4-2.4-5.4-5-11-1.3-16.8z"/><path fill="#EFBD00" d="M199.2 167.5c2.6 1.8 1.5 4.4 1.5 6.6.1 11.7 0 23.5-.1 35.2 0 4.4.3 8.4 2.5 12.6 3.5 6.7 1.9 13.8-1.2 20.5-.1 5.1-1 9.4-7.3 10.4-3.8.6-5.4 4.7-7.6 7.5-2 2.6-3.8 5.7-6.4 7.8-4.5 3.7-7.8 2.1-9.2-4.1 5.6-12.5 2.3-26 4.7-38.4 3.5-18 1.5-35.8 2.6-53.7.1-2.1-.6-4.7 2.9-4.5 1.9 4.3.1 8.7.7 12.9.4 4.7 5.1 7.6 11.4 7 4.7-.3 3.1-4.1 3.5-6.7.5-4.1-1.4-9 2-13.1z"/><path fill="#F28F00" d="M512.2 249.8c3.4 7.6.4 15.8 2.8 23.6.3.9-.6 2.3-1.3 3.2-3.8 4.7-4.7 10-4.1 15.7-8.9-11-19.8-6.3-30.2-3.5-2.2.9-4.4 1.6-6.7 1.2-9.1-3.1-18-1.2-27.1.4-1.8-.3-2.6-1.5-2.9-3.1.4-5.1 4.5-7.2 8.3-9.2 6.4-3.4 12.7-7 18.6-11.3 5-2.5 9.7-5.6 14.8-7.8 6.3-4.8 13.6-7.9 20.2-12.3 3.7-2.8 7.2-3 7.6 3.1z"/><path fill="#F1D400" d="M102.4 125.3c-7.6-1.6-11.6-9.4-19.3-11.3-6.3-1.5-12.4-3.8-19-4.3-9.1-.6-12.9-6.7-9.4-15.3 2.3-5.6 5-11.3 12.3-12.2 14.9-3.8 26.9 1.6 37.6 11.6.3.7.4 1.6.4 2.5-.9 6.7 0 13.5-.3 20.2-.1 2.6.1 5.3-1.3 7.8l-1 1z"/><path fill="#F0AB00" d="M86.5 441.9c20.1-6.7 40.6-11.1 61.3-14.7 4.2-.7 8.6-1.2 12.9-1.8 6.7-1.3 12.3 0 16 6.3-2.8 7-9.7 8.4-15.5 11.1-24.5 4-48.8 7.8-73.2 11.7-2.6-3.8-3.3-8-1.5-12.6z"/><path fill="#EE9000" d="M377.8 431.4h-48.3c-4.8-10-2.9-19.2 4.4-23.2 22.1-1.6 44.2-1.5 66.2 1.2 2.5.9 4.2 2.5 1.2 4.4-8.5 5-15 12.7-23.5 17.6z"/><path fill="#F2C500" d="M171.5 170.3c3.1 4 1.2 8.4 1.2 12.6.3 12.3.9 24.8-1.2 37-.9 5.4-2.9 6.9-7.8 3.7-4.2-2.9-9.7-4.5-13.2-8.8-4.1-8.4-2.6-17.9-6-26.4-1-1.9-2.1-3.7-3.4-5.3-.4-.6-.9-1-1.3-1.6-1.6-1.5-3.2-2.9-4.8-4.5-7.8-7.5-7.8-13.6-.1-21.9 1.2-1.2 2.3-2.5 3.7-3.7 5.4-4.8 6.3-4.5 9.2 2.6 1.2 5.7-.3 11.6 1.2 17.2.4 2.2.6 4.4.6 6.5-.1 2.9.9 5.1 4.1 5.7.6.1 1.3.3 1.9.4 4.4.7 8.8 1.9 13-.3.4-2.1-.4-3.8-.6-5.7.2-2.8 0-5.9 3.5-7.5z"/><path fill="#ED9A00" d="M514.1 307.9c5.4 11 7.5 23.3 14.8 33.6 2.5 3.4 0 9.2-1.8 13.8-2.6 5.3-2.2 11.6-6.3 16.4-5.3 6.2-5.4 6.5-11.1.1-1.2-1.6-1.8-3.4-2-5.4-1.9-14.8-4.2-29.6-12.3-42.8-1.2-1.9-1.6-4.1-1-6.3 6.1-4 12.1-8.4 19.7-9.4z"/><path fill="#D25B00" d="M484.7 260.1c-4.8 2.5-8.9 6.5-14.6 7.3-6.4-1.3-9.1-5.6-8.9-11.9V254c10.1-13.8 20.1-27.7 30.3-41.2 4.2-5.6 9.1-10.6 10.8-17.6 5.1 7.6 3.8 16.7 5.4 25.1-7.3 7.5-12.4 16.4-16.5 26-2.1 4.7-4 9.4-6.5 13.8z"/><path fill="#F1BA00" d="M246.1 198.5v1.5c1.2 2.6.3 5.1-1.3 6.7-7.2 7.2-12.7 15.8-20.6 22.4-3.1 2.1-6.6 1.5-10 1.8-2.6.3-4.1-1.2-4.4-3.8-.9-12-5.6-23.6-3.1-35.9 1-.9 2.2-1.3 3.5-1.3 9.2 1.9 18.7 2.1 28.1 3.5 2.9.4 5.9.9 7.6 3.5.2.6.2 1.1.2 1.6z"/><path fill="#FDFDFD" d="M181.6 524.5c-2.9 7.6-5.3 13.8-7.6 19.8-1 2.5-1.8 4.8-5.4 4.7-4.4-.3-3.4-3.8-3.8-5.9-2.6-12.2-4.5-24.5-5.7-36.8-.1-2.2-1.2-4.4 2.6-4.4 2.9 0 5 0 5.3 4 .7 9.7 2 19.2 3.2 30.4 4.1-6.9 5.3-13.3 7.5-19.5.7-2.1.6-4.8 4.4-4.7 3.7.1 3.4 2.8 4.1 5 1.9 6 4 11.9 7.3 17.7 1.2-9.2 2.2-18.5 3.2-27.9.3-3.2.6-5.6 5-5.1 5.1.6 2.5 3.8 2.3 5.9-1 12.5-3.2 24.6-5.9 36.8-.4 2.1-.1 4.4-3.4 4.5-3.1.1-4.4-1.2-5.3-3.7-2.5-6.4-4.8-12.7-7.8-20.8z"/><path fill="#FEFEFE" d="M413 518.9c0-8.5.1-17.2 0-25.7 0-3.2.4-5.1 4.2-5.1 4.5 0 9.2-.9 13.8-.7 12.3.4 19.8 7.3 20.1 18.6.3 12.3-6.7 19.9-19.5 20.8-10.5.9-10.5.9-10.5 11.6 0 2.2-.1 4.4 0 6.6.4 3.5-1.5 3.8-4.4 4-2.9 0-3.8-.9-3.7-3.8v-26.3z"/><path fill="#FDFDFD" d="M468.2 528.5c1.6 10.9 9.8 15.3 22 12.8 1.9-.3 5-4.7 6.6.9 1.6 5.4-2.3 5.3-5.6 6-20.6 4.5-34.4-7.5-31.6-27.6 1.8-12 12.6-20.1 24.7-18.5 10.5 1.5 17.3 11.3 16.5 23.2-.3 3.5-2 3.2-4.2 3.2-9.4-.2-18.9 0-28.4 0zM133.5 487c3.5.6 7.2 1 10.7 2.1 2 .6 5.1.7 3.8 4.5-1 3.4-2.5 4-5.7 2.5-4.1-1.8-8.5-2.2-12.9-1-3.4.9-6.4 2.6-7 6.6-.6 3.8.9 6.9 4.2 8.7 4.5 2.3 9.2 4.3 13.8 6.5 8.5 4.1 11.7 9.8 10.5 18.8-.9 6.9-5.6 11.1-14.6 12.9-6.9 1.3-13.5.1-20.1-2.1-3.4-1.2-3.8-2.5-2.8-5.9 1.3-4.3 3.5-2.2 5.3-1.2 4.8 2.5 9.8 2.9 14.9 2.1 3.8-.6 7.6-1.9 8.6-6.6 1-4.8-1.2-8.2-5-10.3-4.4-2.5-9.4-4.1-13.9-6.3-5.4-2.8-9.5-6.6-9.7-13.3 0-11.3 7.1-17.7 19.9-18z"/><path fill="#EE8D00" d="M279.7 368.6c.1-6.5-1.5-12.5-3.2-18.5-.9-2.8-.4-5.7-.4-8.5 5.3-5 11.4-8.8 17.3-13.1 3.2-2.2 6.1-4 9.4 0 2.8 18.3 5.1 36.7 2.8 55.3-.7 1.3-1.8 1.6-2.9.6 0-10-5.3-13.8-14.8-13.2-2.7 0-5.8-.4-8.2-2.6z"/><path fill="#EF8C00" d="M333.9 410c-3.1 1.3-4.8 3.2-4.5 7 .4 4.8.1 9.7.1 14.4-6.3.1-12.6.3-18.9.4-5 1.3-10.1.7-15.2.4-6.7-.3-12.3-8.9-12-18 4.1-4.4 9.5-5 15.1-5 2.9 0 5.7.4 8.6 0 5.6-.3 11.1-.6 16.5-1.3 3.6-.6 7.4-1.2 10.3 2.1z"/><path fill="#B66200" d="M263.6 213.1c5 3.4 10 6.6 13.3 11.6-6 3.8-3.2 9.1-3.4 14.5-.3 11.9 3.8 23.2 3.1 34.9-1.5 5.6-5.3 10-7.2 15.3-.4.6-.9 1.2-1.5 1.5-3.4-9.1-6.9-18.3-8.6-28 .7-4.8-1.5-9.2-2.3-13.9-.9-4.3-1.9-8.4 0-12.6 2.9-2.9 1-6.3.6-9.5-1-7.9.5-11.6 6-13.8z"/><path fill="#FDFDFD" d="M314.7 537.9c6.6 2.8 13 4.8 19.9 3.5 2.6-.4 5.7-1.2 6-4.4.4-3.2-2.2-4.7-4.7-5.7-4.2-1.6-8.6-3.1-12.9-4.8-5.4-2.3-10.1-5.6-9.4-12.3.6-6.7 5.3-9.8 11.6-11.3 6.1-1.3 12-.4 18 .4 4.1.6 3.7 2.6 3.1 5.6-.7 4.3-3.2 2.3-5.1 1.8-4.2-1.3-8.6-1.6-13-.9-2.6.3-5.6.9-6.1 4.3-.6 3.5 2.3 4.5 4.7 5.6 4.4 1.9 9.1 3.2 13.6 5.3 5.7 2.5 10 6.5 8.9 13.5-1 6.6-5.9 8.9-11.7 10.1-5.9 1.2-11.6 1-17.3-.1-6-1.5-9.5-3.7-5.6-10.6zM264.8 538c6 1.9 12 4.5 18.7 3.5 3.1-.4 6.9-.9 7.3-4.7.4-3.5-2.8-4.8-5.6-5.9-4.7-1.9-9.7-3.4-14.2-5.6-4.7-2.2-8.1-5.9-7.3-11.4.6-5.7 4.1-9.1 9.5-10.6 6.7-1.9 13.3-1.2 20.1 0 4.2.7 3.4 2.9 2.9 5.7-.6 3.7-2.5 2.5-4.5 1.8-4.7-1.6-9.5-1.9-14.3-1-2.3.4-4.8 1.2-5.4 4.1-.4 3.1 2 4.3 4.2 5.3 4.8 2.1 10 3.8 14.8 5.9 5.6 2.5 9.1 6.5 8.1 13.1-1 6.3-5.6 8.7-11.1 10-6 1.3-12 1.2-18 0-5.8-1.2-8.9-3.7-5.2-10.2z"/><path fill="#F08700" d="M306.5 410.8c-7.5.6-15.2-.1-22.4 3.1-6.6-3.7-10.5-13.8-8.9-22.4.9-4 1-8.1 2.9-11.6 5.6 1 11.1 1 16.7 1 2.9 0 5.9 0 8.2 2.2l1.5 1.5c3.7 1.8 4.1 5.6 2.9 8.2-2.6 6.2-2.2 12-.9 18z"/><path fill="#EC6600" d="M275.2 391.6c.4 8.5 4.7 15.4 8.9 22.4 3.1 14.4 6.7 17.6 20.6 17.6 1.9 0 4 .1 5.9.1-13 2.6-26.2 1.2-39.4 1.5-6.6 1.9-12 .1-16.4-5.1-.4-.6-.6-1.3-.6-2.1 1.8-4.3 2.9-8.8 6.3-12.2 6-1.6 9.4-5.6 10.1-11.7.5-4 2.7-7.1 4.6-10.5z"/><path fill="#EF9F00" d="M514.1 307.9c-6.1 3.4-11.7 7.9-18.9 9.2-4.5-2.8-5-8.1-6.9-12.3-2.3-5.1-4-10.3-8.8-13.8-1-.7-1.5-1.9-.9-3.2.3-2.6 2-3.1 4.1-2.9 4.8.3 9.5-1.2 14.3-1.8 7.6-.9 11 2.2 12.3 9.1 3.4 4.8 4.7 10.1 4.8 15.7z"/><path fill="#EF8B00" d="M175.8 433.1c-3.7-5.1-8.9-7.2-15.1-7.6 10.8-3.8 22.3-3.4 33.2-5.4 5.9-1 11.9-2.8 17.9-1.8 2.3-.4 5.1-1.8 6.6.7 1.6 2.6-.4 5.1-2.2 7.2-3.7 4.3-8.2 7.6-11.3 12.3-7.3-.4-14.5 2.5-22 1.6-3-1.5-5.5-3.7-7.1-7z"/><path fill="#FEFEFE" d="M598.2 539.6c2.6 5.6.3 7.8-5.1 8.9-11.6 2.3-18.7-2.6-19.2-14.4-.4-12.6-.6-25.4-.1-38 .3-6.7-.9-10.1-8.5-8.8-1.6.3-4.4 1.3-4.8-1.5-.4-2.5-1.8-6.3 3.5-5.9h1.5c16.4-.4 16.4-.4 16.4 16v30.8c-.1 15.3 2.1 17 16.3 12.9z"/><path fill="#EB9F00" d="M134.9 89.8c5.1 5.6 6.9 12.6 8.8 19.7 2.3 8.7 3.7 17.6 7.6 25.7-8.3 5.7-8.3 5.6-13.5-4.8-1.5-3.1-2.5-6.3-5.1-8.8-2.5-2.5-2.6-6.2-4.5-9.1-.7-1.8-1.8-3.4-2.9-4.8-1.2-2.2-1.9-4.7-3.1-7-.3-.6-.4-1.2-.7-1.9-.4-1.3-.7-2.5-1-3.8-.1-2.5.6-4.7 1.8-6.9 5-5.3 8.5.7 12.6 1.7z"/><path fill="#F0BC00" d="M123.1 88.5c-.4 2.3-1 4.8-1.5 7.2-5.1 2.8-10.4 0-15.5 0-.7-.3-1.5-.9-2-1.3-11.3-7.5-23-13.3-37.2-12 5.9-4.1 12.6-2.2 19-2.6 6.1-.4 12-1.3 17.4-4.1 5.1-2.6 10.1-2.8 15.2-.3 8.7 2.2 9.4 4.6 4.6 13.1z"/><path fill="#FAFAFA" d="M216.5 625.3c1.3-4.4 2.6-8.7 4.1-13.1.4-1.6.7-3.2 3.1-3.2 2.5 0 3.4 1 4 3.2 1.2 4.4 2.8 8.7 4.1 13.1h1.9c0-7.9-.3-16 .1-23.9.1-2.8-2.3-8.1 2.6-8.1 5.7 0 2.5 5.3 2.3 7.8-.1 9.5-.9 19.1-1.9 28.5-.3 2.5 1.6 6.9-3.5 7.3-4.5.4-3.7-4-4.5-6.2-1.8-4.4-2.8-9.1-4.8-15.7-2.3 7.5-4.1 12.9-5.6 18.5-.7 2.5-1.6 3.8-4.4 3.7-3.1-.1-2.6-2.5-2.8-4.3-.9-11.9-1.6-23.9-2.3-35.8-.1-1.8-.7-4 2.5-4.1 3.1-.1 2.9 1.8 2.9 3.8v28.5h2.2z"/><path fill="#F3D001" d="M146.2 153c-1.8 0-.1-5.6-4.1-2.3-6 5-10.4 11-12.2 18.8-.3 1.2.4 1.9 1.3 2.2 4.7 1.9 6.6 6.9 10.8 9.2-.7.7-1.6 1.5-2.5 1.3-5.4-1.2-8.5 1.6-10.7 6-7.3-10.1-9.7-22-12.7-33.7.7-1 1.9-1.5 3.1-1.9 4.7-1.8 7.3-4.8 5.6-10.3 6.6-2.9 13.5-2.3 20.5-1.5 2.2 4 4.3 7.8.9 12.2z"/><path fill="#FAFAFA" d="M515.6 526.4c0-4.4.4-8.8-.1-13.2-1-7 2.5-9.2 8.6-10.1 7-1 13.9-1.8 20.9-.4 2.8.4 3.7 1.2 2.9 4.3-.6 2.3-.9 3.5-4.1 3.2-19.9-1.9-19.9-1.9-19.9 17.7 0 5.6-.1 11.1 0 16.9.1 2.8-.3 4.5-3.8 4.4-3.2-.1-5-.6-4.7-4.4.5-6.2.2-12.2.2-18.4z"/><path fill="#EE9E00" d="M377.8 431.4c7-8.4 15.1-15.1 24.9-19.9 6.9-4.7 14.3-2.3 21.7-1.8 1.3.7 3.1 2.3 1.2 2.9-8.9 3.1-11 11.6-14.8 18.2 2.3-1 5.1-1.9 6.6 2.1-13.4 1.1-26.4-2-39.6-1.5z"/><path fill="#ED6700" d="M218.2 567.8h-69c-2.8-1.5-6.1-2.5-5.7-6.9h82c-.1 4.8-4.5 5-7.3 6.9z"/><path fill="#FDFDFD" d="M249.7 539.5c2.9 6-.1 8.1-5.3 9.1-11.4 2.3-18.4-2.8-19-14.7-.3-6.3-.4-12.8-.1-19.1.3-4.5-1.2-6.3-5.7-5.6-1.9.3-4 0-5.9 0-2.2 0-2-1.6-1.9-3.1.1-1.5-.9-3.5 1.6-4.1.7-.1 1.5 0 2.2-.1 17.6-1.3 17.6-1.3 17.6 16.1v10.3c.3 13.4 3.3 15.6 16.5 11.2z"/><path fill="#F9F9F9" d="M463.2 635.5v9.8c0 1.9 0 3.4-2.6 3.4-1.9 0-3.4-.3-3.4-2.8v-37.4c0-1 .3-1.8 1.3-2.3 6-4.3 19.6-1.3 23.7 5.3 4.7 7.6 2.5 19.5-4.4 23.6-4.4 2.6-9.2 2.1-14.6.4z"/><path fill="#F0B800" d="M171.2 264.2c3.8 5.9 5.9 5.9 10.1.9 5-6 7.5-15 17.6-15.8 3.2-.3.6-5.1 2.9-6.7-.4 3.4-.3 6.7.4 10 .1.3.3.4.3.7.4 12.9-18.6 30.5-31.5 29-3.5.1-5-1.8-4-5 1.3-4.5 2.9-8.7 4.2-13.1z"/><path fill="#D36200" d="M484.7 260.1c-2.9-4.1 2.2-5.7 2.8-8.8 2.2-9.8 8.9-17.5 13.2-26.3 1.5-2.9 4.1-4 7-4.5 2 9.7 5.1 19.2 4.5 29.3-2-5.3-5-3.2-8.2-1-6.4 3.9-12.8 7.5-19.3 11.3z"/><path fill="#F7F7F7" d="M322.6 616.6c8.2-2.3 10.7-13.1 20.9-12-2.2 4.3-5.6 6.7-8.8 9.1-4.8 3.5-6.6 6.3-.4 10.4 4.4 2.9 7.6 7.3 11 12.6-11.7 1-13-12.3-22.7-14.1v10.6c0 2.2-.3 3.8-3.1 3.7-2.3-.1-2.9-1.2-2.9-3.2 0-13.6.1-27.3 0-41.1 0-3.1 1.9-3.8 4.1-3.8 2.8-.1 1.8 2.3 1.8 3.8.3 7.9.1 15.7.1 24z"/><path fill="#F6C600" d="M417.2 432.8c-2.1-2.3-5.1-.4-7.9-2.1 3.4-8.5 5.4-17.7 16.5-19.8-.4-3.1 1.3-4.3 4-4.5 5.6 8.1 8.1 17.3 9.2 27-7.1-.1-14.5-.4-21.8-.6z"/><path fill="#F7F7F7" d="M387.1 612.7c0-6.2.1-12.2 0-18.3-.1-3.1.4-5.6 4-5.6 3.7.1 1.6 3.2 2 5 .3 1.2.3 2.5 0 3.7-.9 5.6.4 8.1 7 7.3 7-.9 11.6 3.2 12.3 10.6.6 6 .3 12.2.4 18.2.1 2.5-1 3.4-3.4 3.4-2.6 0-2.5-1.6-2.5-3.4 0-5.4.1-10.7-.1-16.1-.1-4.8-2-8.4-7.8-8.5-4.2 0-6.3 1.3-6 5.9.3 6 0 12.2.1 18.3 0 2.1 0 3.8-2.9 3.8s-3.1-1.8-2.9-3.8c-.2-6.9-.2-13.6-.2-20.5z"/><path fill="#EFAB00" d="M423.2 567.8h-70.3c-2.1-2.8-1.8-5.1 1.5-6.9h65.9c2.8 1.5 4.5 3.5 2.9 6.9z"/><path fill="#EC7D00" d="M224.1 229.1c4-6.6 8.9-12.6 14.5-17.9 3.4-3.2 6.3-6.6 7.6-11.1h3.1c6.7 7.3 5.3 16.6 6.3 25.2-.4 2.8.3 6.3-3.1 7.3-3.7 1-4-3.5-6.4-4.8-2.3 2.6-2 7-5.6 8.9-3.8-6.7-9.8-8-16.4-7.6z"/><path fill="#ED8400" d="M171.1 282.2c8.2 0 14.2-3.4 18.9-10.4 4.2-6.5 10.8-11.3 12.3-19.4 2.9 7.9 5.9 15.8 8.6 23.8 1.3 3.7-.1 5.4-4 5.7-3.4.1-7.2-.1-10 1.2-5.7 2.8-10.7 6.7-17 .6-1.6-1.8-6 .9-8.8-1.5z"/><path fill="#EA7900" d="M267.9 291c.1-.6.3-1.2.4-1.8 1-.7 2-.7 3.1-.3 9.5 6.2 19.3 12 28.6 18.6 2.6 4.8 2.8 9.8 1 14.8-4-.4-4-.4-5.3-5.1-2.1-6.9-4.1-7-10-2.9-6.4 4.5-9.5 9.5-7.5 17.5.7 2.9.7 6.3-1.8 8.9-.1 3.1-.1 6.2-.3 9.4-2.6-9.1-1-18.6-2.9-27.9-1.5-10.3-3.4-20.8-5.3-31.2z"/><path fill="#EFB000" d="M86.5 441.9c1.5 4.1 1.8 8.4 1.5 12.8-12.2 2.5-24.5 5.1-36.6 7.6-5.4-2.9-.6-6 0-8.9 11.1-5.4 22.8-9.1 35.1-11.5z"/><path fill="#F1A100" d="M329.5 567.8h-64.3c-1-3.1.9-5 2.9-6.9h61.5c1.8 2.3 1.8 4.5-.1 6.9z"/><path fill="#E58E00" d="M623.7 455.1c-16.7-2.3-33.2-5.3-49.8-8.8 1.3-5.4 6.1-4.8 10-5 10.4-.6 20.8-2.3 31.2-1.2 4.4-.9 7.3 3.2 11.6 3.4 2.7 4.9 1.4 8.6-3 11.6z"/><path fill="#F2D421" d="M199.2 167.5c0 6.3-.1 12.6 0 18.9 0 3.4-.9 5.3-4.7 3.8-3.4-1.3-6.9-2.5-10.5-2.2-2.2.1-3.8-.9-3.7-3.4.3-5.7-1.2-11.7 1.3-17.3 5.9-1.8 11.8-1.2 17.6.2z"/><path fill="#F2C402" d="M145.2 141.4c-6.6 2.9-14.1-.4-20.8 2.8-3.7 2.9-7.5 2.9-11.1 0 0-.4 0-1-.1-1.5-.1-2.8.4-5.7 2.6-7.2 6.4-4.3 10.4-11.3 17.4-14.8 5.4 1.8 4.5 7.5 7.2 11 1.6 2.2 1.9 5.4 4.2 7.5 2.8-.3 2.3-6.2 6.6-4 .3.6.4 1.2.7 1.8-1.2 3.1-2.5 5.9-6.7 4.4z"/><path fill="#FBFBFB" d="M273.9 621c0 9.7-6.3 16.1-15.1 16-8.5-.1-14.2-6.6-14.3-16 0-9.7 5.9-16.3 14.6-16.3s14.8 6.5 14.8 16.3zM420.1 620.4c.1-9.7 6.3-16.1 15.2-15.8 8.8.3 14.3 7 14.2 16.9-.3 9.2-6.3 15.5-14.8 15.4-8.7 0-14.7-6.8-14.6-16.5z"/><path fill="#EB6B00" d="M598.9 567.8h-54.2c-2.2-2.8-.7-5 1.5-6.9h57.1c.9 3.8-1.6 5.4-4.4 6.9z"/><path fill="#E99100" d="M511.1 371.5c5.4 4.8 8.3 3.4 11.7-6.3 1.2-3.4 1.3-7.2 4.4-9.7-2.8 17-4.2 34.2-5.9 51.3-4.1-.9-4.7-7.8-10.4-5.9-.6-9.9-2.9-19.7.2-29.4z"/><path fill="#F1A000" d="M615 440.2c-2.1 2.6-4.8 1.5-7.3 1.8-8.9.6-17.7.9-26.6 1.6-2.5.1-5.3.7-7.2 2.9-3.5-.3-7.2.1-10.5-1.3 1.2-1.8 4-1.6 4.4-4.1 1.9-3.4 1.8-7.8 4.8-10.6 14.6 1 28.5 5.7 42.4 9.7z"/><path fill="#F4D52A" d="M209.5 191.1h-2.6c-.1-5-.1-10.1-.4-15.1-.6-6.3 1.6-10.7 7.8-12.8 4.4 3.8 10 6.3 13 11.7-.1 5.9-3.5 9.8-8.2 12.6-3.2 1.6-6.4 2.6-9.6 3.6z"/><path fill="#F9F9F9" d="M368.9 609.1h-4c-2.8 0-5.9.1-6.6 3.2-1 3.7 2.6 4.1 4.8 5.3 3.1 1.5 6.4 2.2 9.4 3.8 2.9 1.5 5.1 4 4.8 7.5-.3 3.8-2.8 6-6.3 7.2-5.3 1.6-10.5 1.5-15.8.1-1.9-.4-4-.7-3.4-3.7.7-3.2 2.8-1.6 4.5-1.2.4.1.9.4 1.3.6 4.7.9 11.3 2.9 12.9-2.5 1.8-5.6-5.4-5.4-9.1-7-4.7-2.1-10.4-3.4-9.2-10.1 1.2-6.7 6.9-7.3 12.4-7.5 2.2-.1 4.4 0 6.4.4 1.6.3 4.4-.1 3.8 3.1-.6 3.2-2.9 1.3-4.5 1.3-.2-.2-1-.5-1.4-.5z"/><path fill="#F3D80B" d="M171.5 170.3c-1.8 2.8-1.6 6-1.6 9.1-4.8 3.2-10.8 3.7-16.1 5.9-4.2.3-6.1-1.6-5.9-5.9 3.8-8.2 7-16.9 12.2-24.5 5.4 3.8 7.3 10.4 11.4 15.4z"/><path fill="#EB6A00" d="M429.2 153c-1-14.8-1-29.6-2.9-44.3 6 1.2 10.7 4.5 14.6 8.9-.6.4-1.6.7-1.8 1.2-1.9 11.4-8.2 22-5.9 34 .3 1.8 1.3 2.9 2.3 4.3 2.3 3.1-.9 2.5-2.3 3.1-4.6-.3-2.1-5-4-7.2z"/><path fill="#EB8400" d="M240.2 236.5c1-2.9 2-5.9 2.8-8.9.4-1.6-.1-3.8 2.2-4 2.3-.1 3.4 1.6 3.7 3.7.3 1.9.4 4.5 3.1 4 2.3-.6 1-3.4 1.5-5.1 5.6 1.8 4.7 6.2 4.2 10.4-.6 8.5 2.8 16.4 3.8 24.8.4 2.6-.6 2.1-2.2 1.6-3.2-9.2-7.2-17.7-16.5-22.4-1.4-.8-2.6-2.2-2.6-4.1z"/><path fill="#CA4500" d="M225.7 436.1c-3.8 2.3-7.9 1.2-11.9 1.2-.9-7.9 4-13.6 7.3-20.1 6.3-1.2 12.6-2.2 19-1.8 1.5.7 3.2 1.5 3.4 3.5-3.9 7.9-12.1 11.2-17.8 17.2z"/><path fill="#F29500" d="M303.2 383.3h-19.5c-2.5 0-5 .3-5.4-3.2-.6-4 .4-7.8 1.6-11.4 6.6-1.3 12.7 4.1 19.6.4 2.1-1.2 3.7 1.8 3.7 4.1v10.1z"/><path fill="#F1C200" d="M423.2 567.8c-1-2.3-1.9-4.5-2.9-6.9h46.9c2.2 1.9 3.7 4 1.5 6.9h-45.5z"/><path fill="#EFAA00" d="M468.5 567.8c-.4-2.3-1-4.5-1.5-6.9h44.1c2.8 1.3 5.3 3.1 4.2 6.9h-46.8z"/><path fill="#F2A900" d="M568 441.9c1.3 5.7-3.5 1.6-4.8 3.1-11.4-.1-22.5-2.5-33.7-4.4 1.6-.7 2.9-1.6 2.2-3.8-.4-1.2-.4-2.9.9-3.1 12.6-1 3.1-5.9 1.6-9.2h4.4c2.3 1.2 4.1 3.1 5.9 5.1 5.3 3.5 11 5.7 17 7.6 2.6 1.1 5.5 1.7 6.5 4.7z"/><path fill="#F08400" d="M268 560.9c-1 2.3-1.9 4.5-2.9 6.9h-46.9c1.3-3.4 5.6-3.8 7.3-6.9H268z"/><path fill="#EFBB0E" d="M3 199.9v-33.3c0-2.2-.1-4.5 2.2-5.7 2.6-1.3 4.5 0 6 2.2.1 11.7.1 23.6.3 35.3-.4.4-1 .6-1.6.4-2.5-.8-4.4 2.2-6.9 1.1z"/><path fill="#D54F00" d="M225.7 436.1c-1.9-2.3.6-3.2 1.6-3.8 5.9-4 11-8.7 15.8-13.8 6.1-1.2 8.9 3.1 11.7 7.3v1.5c.6 5.6-4.5 5.1-7.3 7.3-7.1 2.1-14.5 1.6-21.8 1.5z"/><path fill="#E7B604" d="M10.3 198.5h1.2c0 20.1-.1 40.2-.1 60.1-2.8-1.2-5.6 6.9-8.5 0 0-9.2.1-18.6.1-27.9 3.5-.6 5.4-2.3 5.3-6.3-.1-6-.1-12 0-18 .1-2.6-.3-5.7 2-7.9z"/><path fill="#EDAC00" d="M145 186.7c1.2.1 2.6.6 2.6 1.9.7 8.8 3.5 17.3 3.1 26.3-8.3-5-14.6-11.9-18.6-20.8 4-3.1 6.9-7.9 12.9-7.4z"/><path fill="#ED7800" d="M143.6 560.9c1.9 2.3 3.8 4.5 5.7 6.9-11.4.1-22.8.1-34.3.3-2.6 0-5.1-.3-5-3.7.1-3.2 2.3-3.8 5.1-3.8 9.4.1 19 .1 28.5.3z"/><path fill="#F7F7F7" d="M299.6 604.7c1 0 2.8-.3 4.4 0 1.5.3 3.5.4 2.9 3.1-.6 2.5-2 2.1-3.8 1.5-1.6-.4-3.4-.3-5-.4-5.9-.4-9.1 1.2-8.2 8.1.7 5.3.1 10.7.1 16.1 0 2.1.1 3.8-2.9 3.7-2.9 0-3.1-1.6-3.1-3.7 0-7.6.1-15.1 0-22.7-.1-3.1 1.3-4.3 4.1-4.7 3.8-.4 7.3-1.4 11.5-1z"/><path fill="#F3CF36" d="M133.3 120.7c-2.8 4.8-7 8.7-11.3 11.7-4 2.9-6.4 6.3-8.9 10.1-2.2-1.9-3.1-4.4-3.7-7.2 4.7-9.4 9.8-18.5 19.5-23.8 4 2.1 2.4 6.6 4.4 9.2z"/><path fill="#F3C200" d="M515.3 567.8c-1.5-2.3-2.9-4.5-4.2-6.9h35c-.4 2.3-.9 4.5-1.5 6.9h-29.3z"/><path fill="#F5D34F" d="M129.1 111.8c0 .3 0 .6-.1.7-8.3 6.2-11.7 16.4-19.3 23-.9-1.9-1.9-3.8-2.8-5.7-1.3-5.3 1.5-9.2 4-13.5.9-.7 1.8-1.2 2.9-1.2 2.8.1 5.1-.4 6.7-3.2 1.3-2.3 3.1-4.3 6-4.7 2.4.3 2.4 2.5 2.6 4.6z"/><path fill="#F0B424" d="M4.5 84.1L6 85.6c.1 3.7.4 7.2 5.6 4.4 0 2.5-.1 5-.1 7.3-2.3 4.4-.6 8.9-1 13.5-.3 2.1-.6 3.8-3.2 4-2.2 0-4.2-.3-4.1-2.9.5-9.3-1.9-18.7 1.3-27.8z"/><path fill="#E6A900" d="M123.1 88.5c.9-5.1 3.2-10.9-4.4-13.2 4.2-.3 8.6-.4 11.7-4.3 1-1.3 2.6-2.3 4.4-1.3 2 1.2 1.9 3.4 1.2 5.1-1.9 5-.9 10-1 15-2 1-4.1 2.1-5.6-.7-1.9-3.1-4.1-1.6-6.3-.6z"/><path fill="#FAE585" d="M160.1 154.8c-2.2 9.1-6.3 17.2-12.2 24.5 0-2.3-.1-4.7-.1-7-1.2-4.5-.6-9.1-.4-13.5.1-4.7 4.4-7.2 10.8-7.2 1.3.7 1.6 1.9 1.9 3.2z"/><path fill="#E46500" d="M672.1 459.4c8.3 3.5 16.8 7 24.3 12-.3.7-.4 1.3-.7 2.1-12.3-3.4-24.5-6.6-36.7-10 2.9-6.2 8-4.8 13.1-4.1z"/><path fill="#F4E379" d="M158.2 151.5c-11.7 2.8-10.7 12-10.4 20.8-2.8-6.3-.6-12.9-1.6-19.4 1.2-4-2.2-7.6-1-11.6 3.1-.1 4.4-2.9 6.7-4.4.9 5.4 6 8.9 6.3 14.6z"/><path fill="#E25200" d="M672.1 459.4c-4.2 1.8-9.5.6-13.2 4.1-4-1-7.9-1.9-11.9-2.9-3.4-5-2.8-6.7 3.4-8.8 7.7 1.4 14.8 4.1 21.7 7.6z"/><path fill="#EB8300" d="M329.5 567.8v-6.9h24.9c-1.5 2.1-1.6 4.4-1.5 6.9h-23.4z"/><path fill="#D83900" d="M623.7 455.1c1.6-3.7 3.4-7.3 2.9-11.6 5.4 2.1 11.7 1.6 16.5 5.4-1.9 5-7.5 5.4-10.7 8.8-2.7-1.4-6.1-.4-8.7-2.6z"/><path fill="#F88100" d="M254.8 425.8c-4.1-2.1-6.9-6.3-11.7-7.3-1-1-1.9-2.1-2.9-3.1 6.6-2.8 13.6-1 20.5-1.6-1.8 4.1-1.5 9.2-5.9 12z"/><path fill="#EE8D00" d="M568 441.9c-2.5-1-4.8-2.1-7.3-2.9-2.8-3.4-4.5-7-2.9-11.6 5.3-1.2 9.5 2.8 14.6 2.9-1.2 4 0 8.9-4.4 11.6z"/><path fill="#EC9800" d="M557.9 427.4c1 3.8 1.9 7.6 2.9 11.6-5.9-2.9-12.7-3.8-17.6-8.8.6-2.5 2.2-4 4.4-4.7 3.4.6 6.8 1.3 10.3 1.9z"/><path fill="#F3DA2F" d="M113.4 144.1h11.1c4.7.3 6 2.2 2 5.6-2.9 2.5-5.6 6.3-10.4 4.8-1.4-3.4-2.8-6.6-2.7-10.4z"/><path fill="#F28000" d="M221 417.2c-2.5 6.7-4.8 13.3-7.3 20.1-2.9.4-5.9.9-8.8 1.3-1.5-4.5 2.9-5.9 5-8.5 1.5-1.9 3.5-3.2 5.3-5 1.3-1.3 2.9-3.2 2.3-5-.7-2.8-3.7-1.2-5.6-1.8 2.8-2.3 6.1-1.1 9.1-1.1z"/><path fill="#DE4700" d="M632.6 457.6c.9-6.2 7.5-5.3 10.7-8.8 2.5.7 5.3 1 7.3 2.9-3.2 2.1-5.6 4.5-3.4 8.8-4.9-.8-9.8-1.8-14.6-2.9z"/><path fill="#DE9900" d="M262.2 710.3c-7.5-.1-14.8-.3-22.1 1.3-3.2-1.3-6.7-1-10-.3-8.1 1.8-15.8 1.3-23.6-1v-1.2h76c-4.2 2.5-8.8.6-13.2 1.3-2.3 1-4.6 1-7.1-.1z"/><path fill="#FAFAFA" d="M233.5 489c-.4 3.8-2.6 5.7-6.3 5.6-3.5-.1-6.1-1.9-6.1-5.7 0-4.3 2.9-6 6.7-5.9 3.8.2 5.7 2.4 5.7 6z"/><path fill="#E46900" d="M175.8 433.1c3.5 1.2 5.3 4.3 7.3 7-7.3 1-14.6 1.9-22 2.9 4-4.6 10-6.3 14.7-9.9z"/><path fill="#F4D623" d="M128.9 188.2c.7-8.2.7-8.2 13.2-7.3v1.5c.7 3.4-2 4.1-4.1 5-2.8 1.2-4 4.1-6.4 5.7-1.8-1.2-2.7-2.8-2.7-4.9z"/><path fill="#EC5600" d="M247.5 434.5c1.6-3.4 6.1-3.7 7.3-7.3 5.4 2.2 9.5 7.9 16.4 6-7.7 2.6-15.8.8-23.7 1.3z"/><path fill="#F7DA34" d="M131.7 193.1c-.3-4 1.8-6.3 5.4-7.3 2-.6 4.2-1 5.1-3.4 2 .7 2.9 2.2 2.9 4.4-4.8 1.6-7.5 6.7-12.9 7.3-.5-.3-.6-.6-.5-1z"/><path fill="#D95900" d="M598.9 567.8c1.5-2.3 2.9-4.5 4.2-6.9 3.1-.3 7-1.3 7.2 3.4 0 4.7-4.1 3.7-7.2 3.7-1.4.1-2.9-.2-4.2-.2z"/><path fill="#E8C50A" d="M111.5 116.3c-1.6 4.5-3.2 8.9-4.8 13.5-1.5-1.5-2.8-3.1-4.2-4.5l.3-.3c2.8-2.8 2.9-7.5 7-9.2.7-.2 1.3.1 1.7.5z"/><path fill="#DA7F00" d="M547.7 425.5c-.9 2.1-2.3 3.7-4.4 4.7-1.5-1.9-2.9-3.8-4.4-5.9 2.9-.3 6-.8 8.8 1.2z"/><path fill="#E96700" d="M344.2 10.7H334c3.3-2.3 6.6-2.3 10.2 0z"/><path fill="#EFC502" d="M10.3 198.5c0 9.4 0 18.8-.1 28.2 0 2.2 1.2 5.1-1.5 6.6-2.3 1.2-3.7-1.8-5.7-2.5V200c2.7.2 3.7-7.5 7.3-1.5z"/><path fill="#F3C50C" d="M572.4 710.3c-2.9 4.5-5.9 6.9-8.6 0h8.6z"/><path fill="#E36500" d="M229.8 711.8c-.4 3.5-3.2 2.8-5.6 2.8h-17.9c1-1.8 2.8-1.3 4.4-1.5 6.4-3.2 12.8-2.5 19.1-1.3z"/><path fill="#F9A800" d="M229.8 711.8c-6.3-.1-12.7-.3-18.9 1.3-1.5-.9-2.9-1.9-4.4-2.8 8.9 0 17.9-.1 26.6 0 2.3 0 4.8-.9 6.7 1.3-3.1.1-6.5.2-10 .2z"/><path fill="#B35D00" d="M262.2 710.3h7.2c-2.4 2.1-4.7 2.1-7.2 0z"/><path fill="#F7D939" d="M209.5 191.1c.9-2.2 2.9-3.5 5-3.8 7.2-1.2 8.6-7.9 12.6-12.3 7.6 5.3 12.4 13.2 19 19.5.7.6 1 1.6 0 2.5-10.4-2.8-21.4-2.2-31.8-4.4-1.8-.4-3.2-1-4.8-1.5z"/><path fill="#EFC500" d="M405.7 106.1c-1.3 10.3 5.4 18.5 6.7 28 .3 2.2 1.2 4.5 0 6.5-6 8.7-1.2 16.3 1.9 24.2 2.3 5.9 3.1 12.3 2.9 18.5-.4 13.8 1.8 27.6.1 41.4-.3 2.5-1 5.4 1.6 7.5.3 2.6-1.5 4-3.4 5.1-11.4 6.5-22.8 11.9-36.5 13.6-23.9 3.1-47.9 4.7-71.6 8.1-5.4.7-7.9 3.1-8.1 8.4-.3 2.5 0 5-1.6 7-4.7.3-3.7-3.5-3.8-5.9 0-4.8-1.2-9.4-3.2-13.8.9-4.4.3-9.7 6.4-11 5.9-4.8 9.1-11.6 13.2-17.6 13.5-16.9 26.8-34 40.7-50.6 14.3-17 25.9-35.9 40.7-52.4 5-5.3 9.4-11.3 14-17z"/><path fill="#BD6C00" d="M297.2 243.9c-4.1 2.2-2.3 7.8-5.9 10.3-2.2 5.9-5.7 11.1-9.2 16.3-1.6 2.3-3.2 5-6.7 4.5-1.6-5-2.3-10.1-1.2-15.1.6-2.5.4-4.3-1.3-5.9-.7-.6-1.6-1.6-1.6-2.3.9-7.6-.1-15.1-1-22.6-.6-5.4 3.1-4.7 6.6-4.3 7.1 5.9 15 11.1 20.3 19.1z"/><path fill="#AE5900" d="M257.6 236.6c-2.5-3.1-.4-7.9-4.2-10.4.1-8.9-1.8-17.6-4.2-26.3 5.7 3.4 11.4 6.7 14.5 13.1-6.1 4.7-5.3 10.9-3.1 16.9 1.1 3.8 1.9 6.1-3 6.7z"/><path fill="#EA6B00" d="M429.2 153c2.6 1.8 1.9 5.4 4.2 7.3 2.9 13.1 6.7 26 3.4 39.7-1.3 5.6 1.5 11.7 3.1 16.9 2.6 8.7 0 16.7.9 24.9.6 5.1 0 10.3.1 15.4.1 7.5 4.7 9.8 11 6.2 1-.6 2.3-.4 3.5-.6-1.5 7-6.3 11.4-11.6 15.7-1.5 1.2-3.1 1.3-4.5-.1-3.1-5-3.4-10.6-3.5-16.1-.1-10.1-.9-20.4.9-30.5.7-4-.9-7-3.2-10-1.2-3.8-1.3-7.6-1.5-11.4-.9-19.1-1.9-38.2-2.8-57.4z"/><path fill="#CA5100" d="M440.8 279.1c6.6-3.8 9.7-10.7 14.6-16.1 2-2.5 2.9-5.7 5.9-7.3 2.1 4.7 4.4 8.9 8.9 11.9-3.8 5.4-10.1 7.2-15.4 10.4-4.1 2.5-8.9 4-11.3 8.8-4.2-1.5-4.8-4.1-2.7-7.7z"/><path d="M440.8 279.1c-.4 2.9.4 5.6 2.8 7.6.6.9 1.2 1.8 1.6 2.6 3.7 2.6 3.7 6.6 3.7 10.4 0 10.4-.3 20.8-.1 31.2-1.6 14.2-4.2 28.3-6.3 42.5-1.5 5-2.3 10-3.2 15-.6 1.9-1.3 3.7-3.2 4.8-1 4.8-5.3 8.1-6 13.1-1.3 1.5-2.6 3.1-4 4.5-7.8.1-15.5.3-23.4.4-22.8-1.6-45.8-2.8-68.8-1.5-9.2-.9-18.2 2.2-27.4 1-3.1-5.1-6.6-9.8-1-16 2.3-2.5 1-6.9-.9-10.3.4-19.2-1.2-38.1-3.4-57.2-.9-1.3-2.2-2.5-1.2-4.4.4-5.4.4-10.9-1.5-16.1-4.5-10-1.8-20.4-1.3-30.7.1-3.1 1-6.2 0-9.2-.1-7.2 3.1-9.4 10.5-10.3 22.4-2.9 44.8-4.8 67.2-7.3 16.7-1.9 30.6-7.8 43.8-17.2 5.6-2.3 10.8-5.3 14.5-10.3 6.3-.3 6.3 3.5 5.7 8.2-2.1 14.7-2.2 29.5.3 44.1.4 1.9 1 3.5 1.6 5.1zM511.1 371.5c.1 9.8 2.6 19.5 0 29.3-2.3 2.5-4.4 5.6-4.8 8.8-1.2 8.5-7.6 9.7-13.5 8.5-18-3.4-36.3-3.2-54.3-5.9-.3-2.9 1.5-4.7 2.5-6.9 2.3-5.4 3.7-11.3 5.9-16.7 2.1-3.7 3.4-7.6 5-11.6 4.7-8.1 11.9-14.7 14.6-23.9.9-8.1.4-16.1.3-24.1-.3-10.6 1.2-20.8 2.8-31.2.4-3.1.9-6.3 3.8-8.4 1.6-1.9 3.7-1.6 5.9-1.5 10.5 6.9 11.9 19.1 16.5 29.3 3.7 11.1 10.7 21.1 12 33.1.3 7.2.5 14.5 3.3 21.2z"/><path fill="#E6A406" d="M447.8 389c-1.2 6-3.1 11.7-6.9 16.4.3-1.6.3-3.4.7-4.8 1.8-5.3-.1-7.6-5.6-7.2.3-1.6.3-3.2 1.6-4.4 3.5-2.2 6.9-2.6 10.2 0z"/><path fill="#F09E00" d="M473 289.4c-4.2 18.8-5.1 37.8-4.5 56.9.1 3.1 1.2 6.3-1.3 9.1-2.3-2.1-2.2-4.8-1.9-7.5.9-10.7-3.1-19.5-10.4-27-1.5-1.6-2.6-3.4-4.2-6.5-.9 4.3-.1 7.6-.6 10.7-.3 2.5.6 5.6-3.1 6.5 0-9.7.1-19.4-.1-28.9-.1-4.5-1-9.1-1.6-13.6 7.8-4.3 16.3-2.6 24.6-2.9 1.8.3 2.8 1.3 3.1 3.2z"/><path fill="#F3CE2E" d="M109.9 116.3c-2.6 2.6-2.3 7.8-7.2 8.7.4-9.7-1.8-19.7 1.3-29.2 2.5 1.6 1.2 4.7 2.6 6.9 1.8-2.3.9-5.9 3.8-7.3 3.4 0 5.4 1.8 4.5 4.8-1.3 5.3-.8 11.6-5 16.1z"/><path fill="#F5D249" d="M109.8 95.8c-.3 4.1-.1 10.9-3.8 10.6-4.1-.3-.9-7-2-10.9 0-.4.1-.9.1-1.3h1.3c1.3 1.6 3.3.1 4.4 1.6z"/><path fill="#F6D724" d="M153.8 185.3c.7-1.8-1.9-8.2 4-2.9.9.7 1.9.7 2.5-.1 2.3-4.1 6.3-2.3 9.7-2.8 1 1.8 1.8 3.7 1.5 5.9-5.4 1.3-10.7 1-16.1 0-.6-.1-1.1-.1-1.6-.1z"/><path fill="#F9D801" d="M155.3 185.3h16.1c-5.4 2.9-10.7 1.7-16.1 0z"/><path fill="#030303" d="M420.9 507.4c0-.7-.3-1.6 0-2.2 1.8-3.4-4-9.4 3.5-10.4 10.1-1.5 16.3 1.8 17.7 8.5 1.8 8.1-1.2 13.6-7.9 15.7-11 3.3-13.3 1.1-13.3-11.6zM480 521.1c-1.5 0-2.9.3-4.4 0-2.3-.6-6.1 1.8-7-1.3-.7-3.1 1.9-5.9 4.5-7.8 4-2.8 8.5-3.7 13-1.3 3.5 1.8 6.2 5 5.4 8.7-.7 4-4.8 1.2-7.3 1.8-1.1.2-2.7-.1-4.2-.1z"/><path fill="#ED8400" d="M300.1 323.1c.7 1.3 1.6 2.8 1.2 4.4-7.9 1.8-13.9 7-19.8 12.2-2.1 1.8-3.2.7-4.8 1-.3-5.6.9-11.1-1.3-16.6-.3-.9-.1-1.9-.1-2.9.1-1.5 12.2-11.7 13.6-11.9 4.4 0 8.8-.3 8.3 6.3.1 2.7 1 5.5 2.9 7.5z"/><path fill="#F6D100" d="M275.3 274.9c6.1-4.4 8.9-11.3 12.7-17.5.9-1.5 1.2-3.2 3.4-3.2 3.8 3.2 4.8 7.5 4.5 12.3-.1 2.8-1.2 5.9 1.3 8.2.3.4.6.9.6 1.3 1.2 13.6.9 14.1-12.7 14.1-4.7 0-9.7 1.9-14.3-.7-.9-.1-1.8-.1-2.5-.3.8-5.6 4.3-9.7 7-14.2z"/><path fill="#F4CB14" d="M109.8 95.8c-1.6-.1-3.4.1-4.4-1.5 5.4-.6 10.8.4 16.3 1.3 1.2.7 1.3 1.8 1.3 3.1-1.6 1.3-1.2 3.5-2 5.1-2 4.3-3.1 8.9-6.7 12.3-.9 0-1.8.1-2.6.1-.6 0-1.2 0-1.6-.1 1.3-5 .9-10.4 3.2-15.3 1.6-3.2-.2-4.7-3.5-5z"/><path fill="#F6D962" d="M114.1 116.2c.7-5 2.9-9.2 5.9-13.2 1.2-.9 1.6-2.5 3.1-3.1 1.9 2.1 2.9 4.4 3.1 7.2-1.2 2.8-4.4 3.8-5.1 7.2-.5 2.3-3.9 4.4-7 1.9z"/><path fill="#F9DE7C" d="M123.1 100.1c-.1 1.9-1 3.1-3.1 3.1.3-1.9-.3-4.4 2.9-4.4.2.4.3.8.2 1.3z"/><path fill="#060606" d="M463.2 620.6c0-1.6-.1-2.6 0-3.5.6-2.8-2-6.9 2.8-7.9 4.5-.9 9.1 0 11.3 4.7 2.8 5.6 2.6 11.4-1.6 16.4-2.5 2.9-6 2.9-9.4 1.3-5.9-2.5-1.8-7.8-3.1-11z"/><path fill="#F3AD00" d="M270.8 289.4c5.9-1.5 11.9-2.1 17.9-1.3 7.2.9 9.7-2.2 8.5-8.9-.3-1.5 0-2.9 0-4.4 0-2.5.1-5.1.1-7.6 2.6 13.2.9 26.5 1.3 39.9-7.6-.1-11.3-7.3-17.7-10.1-3.5-1.7-8-3.2-10.1-7.6z"/><path fill="#030303" d="M268 620.7c0 7.2-3.5 11.9-8.9 11.7-5.4-.1-8.8-4.7-8.6-12 .1-5.7 1.6-10.9 8.5-11.4 5.4-.3 9 4.5 9 11.7zM443.7 620.9c0 7.2-3.7 11.9-9.1 11.7-5.3-.1-8.6-4.8-8.5-12.2.1-6.9 3.5-11.3 8.6-11.3 5.4-.1 9 4.6 9 11.8z"/><path fill="#F0C800" d="M446.9 331.9c2.6-5.6.6-11.4 1.2-17.2.1-1.6-.6-3.8 1.8-4.1 1.6-.1 2.3 1.5 2.6 2.9.7 3.5 3.5 5.6 5.7 8.1 6.6 7.3 10.1 15.7 8.9 25.8-.3 2.6 0 5.3 0 7.9-3.2 8.4-9.1 15.1-14.3 22.1-4.7 1.6-8.8.4-12.2-3.1 2.1-14.1 4.1-28.3 6.3-42.4z"/><path fill="#F3D875" d="M440.6 374.5c4.1 1 8.1 2.1 12.2 3.1-.6 4.3-2.3 8.1-5 11.4h-10.1c-.3-5.1.3-10.1 2.9-14.5z"/></svg>